<?xml version="1.0" encoding="UTF-8"?>
<svg width="25px" height="24px" viewBox="0 0 25 24" version="1.1" xmlns="http://www.w3.org/2000/svg" xmlns:xlink="http://www.w3.org/1999/xlink">
    <title>icon_BNB</title>
    <g id="2.0改版" stroke="none" stroke-width="1" fill="none" fill-rule="evenodd">
        <g id="token-list" transform="translate(-124.000000, -27.000000)">
            <g id="icon_BNB" transform="translate(124.153868, 27.000000)">
                <circle id="椭圆形" stroke="#EDEEF2" fill="#F0B90B" cx="12" cy="12" r="11.5"></circle>
                <path d="M7.48878083,6.10390417 L12,3.5 L16.5112333,6.10390417 L14.8526708,7.06585625 L12,5.42390417 L9.14732208,7.06585625 L7.48878083,6.10390417 Z M16.5112333,9.38780125 L14.8526708,8.42585625 L12,10.0678083 L9.14732208,8.42585625 L7.48878083,9.38780125 L7.48878083,11.3117125 L10.3414588,12.9536292 L10.3414588,16.2375333 L12,17.1995208 L13.6585625,16.2375333 L13.6585625,12.9536292 L16.5112333,11.3117125 L16.5112333,9.38780125 Z M16.5112333,14.5956167 L16.5112333,12.6717125 L14.8526708,13.6336292 L14.8526708,15.5575333 L16.5112333,14.5956167 Z M17.6887667,15.2756167 L14.8360958,16.9175333 L14.8360958,18.8414375 L19.3473292,16.2375333 L19.3473292,11.029725 L17.6887667,11.9917125 L17.6887667,15.2756167 Z M16.030275,7.74585625 L17.6887667,8.70780125 L17.6887667,10.6317125 L19.3473292,9.66975333 L19.3473292,7.74585625 L17.6887667,6.78390417 L16.030275,7.74585625 Z M10.3414587,17.6141792 L10.3414587,19.5380833 L12,20.5 L13.6585625,19.5380833 L13.6585625,17.6141792 L12,18.5760958 L10.3414587,17.6141792 Z M7.48878083,14.5956167 L9.14732208,15.5575333 L9.14732208,13.6336292 L7.48878083,12.6717125 L7.48878083,14.5956167 Z M10.3414587,7.74585625 L12,8.70780125 L13.6585625,7.74585625 L12,6.78390417 L10.3414587,7.74585625 Z M6.311205,8.70780125 L7.96974625,7.74585625 L6.311205,6.78390417 L4.65267083,7.74585625 L4.65267083,9.66975333 L6.311205,10.6317125 L6.311205,8.70780125 Z M6.311205,11.9917125 L4.65267083,11.029725 L4.65267083,16.2375333 L9.16388292,18.8414375 L9.16388292,16.9175333 L6.311205,15.2756167 L6.311205,11.9917125 Z" id="形状" fill="#FFFFFF" fill-rule="nonzero"></path>
            </g>
        </g>
    </g>
</svg>