<?xml version="1.0" encoding="UTF-8"?>
<svg width="25px" height="24px" viewBox="0 0 25 24" version="1.1" xmlns="http://www.w3.org/2000/svg" xmlns:xlink="http://www.w3.org/1999/xlink">
    <title>icon_Default</title>
    <g id="页面-1" stroke="none" stroke-width="1" fill="none" fill-rule="evenodd">
        <g id="token-list" transform="translate(-216.000000, -27.000000)">
            <g id="icon_Default" transform="translate(216.680436, 27.000000)">
                <circle id="椭圆形" stroke="#EDEEF2" fill="#FFFFFF" cx="12" cy="12" r="11.5"></circle>
                <g id="禁止" transform="translate(2.000000, 2.000000)" fill="#988EB7" fill-rule="nonzero">
                    <path d="M17.6933594,3.61132812 C17.2929688,3.12890625 16.8476562,2.68554688 16.3652344,2.28710938 C14.6367188,0.859375 12.4179688,0 10,0 C4.4765625,0 0,4.4765625 0,10 C0,12.4179688 0.859375,14.6367188 2.2890625,16.3671875 C2.6875,16.8496094 3.13085938,17.2949219 3.61328125,17.6953125 C5.34375,19.1347656 7.5703125,20 10,20 C15.5234375,20 20,15.5234375 20,10 C20,7.5703125 19.1347656,5.34375 17.6933594,3.61132812 Z M2.51367187,13.1621094 C2.08984375,12.1621094 1.875,11.0976562 1.875,10 C1.875,8.90234375 2.08984375,7.83789062 2.51367187,6.83789062 C2.921875,5.87109375 3.50976562,5.00195312 4.25585937,4.25390625 C5.00195312,3.5078125 5.87109375,2.921875 6.83984375,2.51171875 C7.83789062,2.08984375 8.90234375,1.875 10,1.875 C11.0976562,1.875 12.1621094,2.08984375 13.1621094,2.51171875 C13.6015625,2.69726563 14.0195312,2.91992188 14.4160156,3.17578125 C14.7480469,3.390625 14.7949219,3.859375 14.5136719,4.140625 L4.140625,14.5136719 C3.86132812,14.7929687 3.39257812,14.7480469 3.17578125,14.4160156 C2.91992188,14.0195312 2.69921875,13.6015625 2.51367187,13.1621094 Z M15.7460937,15.7460938 C15,16.4921875 14.1308594,17.078125 13.1621094,17.4882813 C12.1621094,17.9101563 11.0976562,18.125 10,18.125 C8.90234375,18.125 7.83789062,17.9101563 6.83789062,17.4863281 C6.390625,17.296875 5.96289062,17.0703125 5.56054687,16.8066406 C5.23046875,16.5898438 5.18359375,16.1230469 5.46289062,15.84375 L15.84375,5.46289063 C16.1230469,5.18359375 16.5898437,5.22851563 16.8066406,5.56054688 C17.0703125,5.96484375 17.296875,6.390625 17.4863281,6.83789063 C17.9101562,7.83789063 18.125,8.90234375 18.125,10 C18.125,11.0976563 17.9101562,12.1621094 17.4863281,13.1621094 C17.078125,14.1289063 16.4921875,14.9980469 15.7460937,15.7460938 Z" id="形状"></path>
                </g>
            </g>
        </g>
    </g>
</svg>