<?xml version="1.0" encoding="UTF-8"?>
<svg width="25px" height="25px" viewBox="0 0 25 25" version="1.1" xmlns="http://www.w3.org/2000/svg" xmlns:xlink="http://www.w3.org/1999/xlink">
    <title>DOT logo</title>
    <g id="2.0改版" stroke="none" stroke-width="1" fill="none" fill-rule="evenodd">
        <g id="token-list" transform="translate(-77.000000, -65.000000)" fill-rule="nonzero">
            <g id="DOT-logo" transform="translate(77.890584, 65.973855)">
                <rect id="矩形" stroke="#EDEEF2" fill="#E6007A" x="0.5" y="0.5" width="23" height="23" rx="11.5"></rect>
                <path d="M12.00216,7.38114 C13.57998,7.38114 14.85906,6.63543 14.85906,5.71557 C14.85906,4.79571 13.57998,4.05 12.00216,4.05 C10.42434,4.05 9.14529,4.79571 9.14529,5.71557 C9.14529,6.63543 10.42434,7.38114 12.00216,7.38114 Z" id="路径" fill="#FFFFFF"></path>
                <path d="M12.00216,19.93092 C13.57998,19.93092 14.85906,19.18521 14.85906,18.26535 C14.85906,17.34549 13.57998,16.59978 12.00216,16.59978 C10.42434,16.59978 9.14529,17.34549 9.14529,18.26535 C9.14529,19.18521 10.42434,19.93092 12.00216,19.93092 Z" id="路径" fill="#FFFFFF"></path>
                <path d="M8.02089,9.6867 C8.8098,8.31699 8.80467,6.83355 8.00946,6.37329 C7.21425,5.91306 5.93004,6.65031 5.14113,8.01999 C4.35222,9.38967 4.35735,10.87314 5.15259,11.33337 C5.9478,11.79363 7.23198,11.05638 8.02089,9.6867 Z" id="路径" fill="#FFFFFF"></path>
                <path d="M18.86193,15.96081 C19.65084,14.59113 19.64616,13.10793 18.85146,12.648 C18.05679,12.18807 16.77303,12.92556 15.98412,14.29524 C15.19521,15.66495 15.19989,17.14815 15.99459,17.60808 C16.78929,18.06801 18.07302,17.33052 18.86193,15.96081 Z" id="路径" fill="#FFFFFF"></path>
                <path d="M8.00988,17.60769 C8.80509,17.14746 8.81022,15.66399 8.02131,14.29431 C7.2324,12.92463 5.94822,12.18738 5.15298,12.64761 C4.35777,13.10787 4.35264,14.59131 5.14155,15.96102 C5.93046,17.3307 7.21464,18.06795 8.00988,17.60769 Z" id="路径" fill="#FFFFFF"></path>
                <path d="M18.85215,11.33376 C19.64682,10.87383 19.65153,9.3906 18.86262,8.02092 C18.07371,6.65124 16.78995,5.91372 15.99525,6.37365 C15.20058,6.83361 15.1959,8.31681 15.98481,9.68649 C16.77372,11.05617 18.05745,11.79369 18.85215,11.33376 Z" id="路径" fill="#FFFFFF"></path>
            </g>
        </g>
    </g>
</svg>