<?xml version="1.0" encoding="UTF-8"?>
<svg width="25px" height="24px" viewBox="0 0 25 24" version="1.1" xmlns="http://www.w3.org/2000/svg" xmlns:xlink="http://www.w3.org/1999/xlink">
    <title>编组</title>
    <g id="sherpaX-浏览器" stroke="none" stroke-width="1" fill="none" fill-rule="evenodd">
        <g id="画板" transform="translate(-46.000000, -42.000000)">
            <g id="编组" transform="translate(46.500000, 42.000000)">
                <circle id="椭圆形" fill="#080810" cx="12" cy="12" r="12"></circle>
                <path d="M20.5793971,6.72711033 C20.2167784,6.40478263 19.8138688,6.16303685 19.3303772,6.08245492 C18.7260128,6.00187299 18.1216483,6.40478263 17.7187387,6.68681937 C17.315829,6.96885611 16.5100098,7.69409345 16.1876821,7.9761302 C15.8653544,8.25816694 15.0595351,8.41933079 13.7299333,9.22515006 C12.4003315,10.0309693 7.24308821,13.3348283 7.24308821,13.3348283 L8.57269,13.3348283 L2.56933646,16.4372325 L3.17370091,16.4372325 L2.32759068,17.0818879 C2.81108224,17.2027608 3.2945738,17.1221789 3.7377744,16.8804331 L3.7377744,17.0818879 C3.7377744,17.0818879 10.8692749,14.2615205 12.2391677,14.9867578 L11.3930574,15.2285036 C11.4736394,15.2285036 12.8032411,15.3090855 12.8032411,15.3090855 C12.8838231,15.873159 13.2061508,16.3969415 13.6896423,16.6789783 C14.4954616,17.2027608 14.5357526,17.5250885 14.5357526,17.5250885 C14.5357526,17.5250885 14.1328429,17.6862524 14.1328429,17.9279981 C14.8983712,17.6862524 15.7041905,17.6862524 16.4294278,17.9279981 C16.4294278,17.9279981 16.3891369,17.6862524 15.8250634,17.5250885 C15.2609899,17.2833427 14.7774984,16.9207241 14.4148797,16.3969415 C14.092552,15.9537409 13.9716791,15.3896674 14.1731339,14.8658849 C14.3745887,14.3421024 15.0595351,14.0600657 16.4697188,13.3348283 C18.1216483,12.4887181 18.5245579,11.8440627 18.7260128,11.3202802 C18.9274676,10.7964976 19.3303772,9.82951451 19.4915411,9.34602295 C19.6527049,8.90282235 19.9347417,8.54020368 20.2973603,8.21787598 C20.7405609,7.9761302 21.2240525,7.77467538 21.6672531,7.61351153 C21.747835,7.65380249 20.8614338,6.92856515 20.5793971,6.72711033 Z" id="路径" fill="#FFFFFF" fill-rule="nonzero"></path>
            </g>
        </g>
    </g>
</svg>