<?xml version="1.0" encoding="UTF-8"?>
<svg width="64px" height="64px" viewBox="0 0 64 64" version="1.1" xmlns="http://www.w3.org/2000/svg" xmlns:xlink="http://www.w3.org/1999/xlink">
    <title>编组 7备份</title>
    <defs>
        <rect id="path-1" x="0" y="0" width="36.4912281" height="17.0666667"></rect>
        <linearGradient x1="50%" y1="0%" x2="50%" y2="100%" id="linearGradient-3">
            <stop stop-color="#FF6875" offset="0%"></stop>
            <stop stop-color="#162A4C" offset="100%"></stop>
        </linearGradient>
        <rect id="path-4" x="0" y="0" width="36.4912281" height="17.0666667"></rect>
        <linearGradient x1="50%" y1="0%" x2="50%" y2="100%" id="linearGradient-6">
            <stop stop-color="#F24352" offset="0%"></stop>
            <stop stop-color="#365385" offset="100%"></stop>
        </linearGradient>
        <rect id="path-7" x="0" y="0" width="36.4912281" height="25.8752688"></rect>
        <rect id="path-9" x="0" y="0" width="36.4912281" height="25.3247312"></rect>
        <linearGradient x1="50%" y1="0%" x2="50%" y2="100%" id="linearGradient-11">
            <stop stop-color="#FF6875" offset="0%"></stop>
            <stop stop-color="#162A4C" offset="100%"></stop>
        </linearGradient>
        <polygon id="path-12" points="13.2959799 0 21.431939 0.139526093 33.4035088 10.0626183 33.4035088 14.4535046 0 14.4535046"></polygon>
        <linearGradient x1="50%" y1="-44.6199733%" x2="50%" y2="100%" id="linearGradient-14">
            <stop stop-color="#F24352" offset="0%"></stop>
            <stop stop-color="#365385" offset="100%"></stop>
        </linearGradient>
    </defs>
    <g id="页面-1" stroke="none" stroke-width="1" fill="none" fill-rule="evenodd">
        <g id="编组-7备份">
            <circle id="椭圆形备份-10" stroke="#EDF0F2" fill="#F9FAFB" cx="32" cy="32" r="31.5"></circle>
            <g id="编组-6备份-4" transform="translate(13.333333, 10.666667)">
                <g id="浅备份" transform="translate(0.842105, 25.600000)">
                    <mask id="mask-2" fill="white">
                        <use xlink:href="#path-1"></use>
                    </mask>
                    <g id="蒙版"></g>
                    <path d="M18.3998284,16.1454301 C22.0845872,16.1454301 24.9363553,15.1056044 26.9551327,13.0259529 C28.9739101,10.9463014 29.9832988,8.33310635 29.9832988,5.18636777 C29.9832988,2.11751876 29.1209085,-0.226957266 27.3961278,-1.8470603 C26.2854735,-2.89078052 24.6390919,-3.72419891 22.456983,-4.34731546 L17.4786387,-5.77269457 C15.5578602,-6.31792155 14.3034743,-6.79304792 13.7154808,-7.19807368 C12.8008244,-7.80561232 12.3434962,-8.72470923 12.3434962,-9.95536442 C12.3434962,-11.295065 12.8073577,-12.3387852 13.7350806,-13.0865251 C14.6628036,-13.8342649 15.904123,-14.2081349 17.4590389,-14.2081349 C18.8571566,-14.2081349 20.0266102,-13.9199435 20.9673997,-13.3435607 C22.3785839,-12.4711975 23.1364421,-10.9990846 23.2409743,-8.92722211 L29.0425093,-8.92722211 C28.9379772,-12.5880318 27.8109898,-15.3803729 25.6615472,-17.3042452 C23.5121046,-19.2281176 20.9151336,-20.1900538 17.8706343,-20.1900538 C14.2250751,-20.1900538 11.4615061,-19.1697004 9.5799271,-17.1289937 C7.69834816,-15.088287 6.75755868,-12.5257202 6.75755868,-9.44129326 C6.75755868,-6.06088597 7.73101446,-3.57620873 9.67792601,-1.98726152 C10.8277798,-1.03700878 12.9053566,-0.156856654 15.9106563,0.653194862 L18.9682221,1.47103534 C20.7583354,1.93837275 22.0715207,2.47581077 22.907778,3.08334941 C23.7440353,3.70646596 24.1621639,4.58661809 24.1621639,5.72380579 C24.1621639,7.67104502 23.3193734,9.00295664 21.6337922,9.71954068 C20.7452688,10.0934106 19.5888818,10.2803456 18.1646311,10.2803456 C15.7865243,10.2803456 14.1074764,9.5715505 13.1274874,8.15396034 C12.5917601,7.37506465 12.2324308,6.19893216 12.0494995,4.62556287 L7.28001645,0.496530616 L7.28001645,5.72380579 C7.28001645,8.53333333 8.65466622,11.409628 10.0319682,13.0259529 C12.1879441,15.0744485 14.6366705,16.1454301 18.3998284,16.1454301 Z" id="S备份" fill="url(#linearGradient-3)" fill-rule="nonzero" mask="url(#mask-2)"></path>
                </g>
                <g id="深备份" transform="translate(0.000000, 25.600000)">
                    <mask id="mask-5" fill="white">
                        <use xlink:href="#path-4"></use>
                    </mask>
                    <g id="蒙版"></g>
                    <path d="M20.2347862,12.0163978 C23.919545,12.0163978 26.771313,10.9765721 28.7900905,8.89692062 C30.8088679,6.81726913 31.8182566,4.20407409 31.8182566,1.05733551 C31.8182566,-2.0115135 30.9558662,-4.35598952 29.2310855,-5.97609256 C28.1204313,-7.01981278 26.4740497,-7.85323117 24.2919408,-8.47634772 L19.3135965,-9.90172683 C17.392818,-10.4469538 16.138432,-10.9220802 15.5504386,-11.3271059 C14.6357822,-11.9346446 14.1784539,-12.8537415 14.1784539,-14.0843967 C14.1784539,-15.4240973 14.6423154,-16.4678175 15.5700384,-17.2155573 C16.4977613,-17.9632972 17.7390808,-18.3371671 19.2939967,-18.3371671 C20.6921144,-18.3371671 21.861568,-18.0489757 22.8023575,-17.4725929 C24.2135417,-16.6002297 24.9713999,-15.1281169 25.075932,-13.0562544 L28.3511513,-8.92722211 L30.8774671,-13.0562544 C30.7729349,-16.7170641 29.6459476,-19.5094051 27.4965049,-21.4332775 C25.3470623,-23.3571498 22.7500914,-24.319086 19.7055921,-24.319086 C16.0600329,-24.319086 13.2964638,-23.2987327 11.4148849,-21.258026 C9.53330592,-19.2173193 8.59251645,-16.6547524 8.59251645,-13.5703255 C8.59251645,-10.1899182 9.56597222,-7.70524098 11.5128838,-6.11629378 C12.6627376,-5.16604104 14.7403143,-4.28588891 17.745614,-3.4758374 L20.8031798,-2.65799692 C22.5932931,-2.19065951 23.9064784,-1.65322148 24.7427357,-1.04568285 C25.5789931,-0.422566297 25.9971217,0.457585831 25.9971217,1.59477354 C25.9971217,3.54201276 25.1543311,4.87392439 23.46875,5.59050842 C22.5802266,5.96437835 21.4238395,6.15131331 19.9995888,6.15131331 C17.6214821,6.15131331 15.9424342,5.44251824 14.9624452,4.02492808 C14.4267178,3.2460324 14.0673885,2.06989991 13.8844572,0.496530616 L8.12212171,0.496530616 C8.12212171,4.07945078 9.20010965,6.8951587 11.3560855,8.94365436 C13.5120614,10.99215 16.4716283,12.0163978 20.2347862,12.0163978 Z" id="S" fill="url(#linearGradient-6)" fill-rule="nonzero" mask="url(#mask-5)"></path>
                </g>
                <g id="深备份-2">
                    <mask id="mask-8" fill="white">
                        <use xlink:href="#path-7"></use>
                    </mask>
                    <g id="蒙版"></g>
                    <path d="M20.2347862,37.6163978 C23.919545,37.6163978 26.771313,36.5765721 28.7900905,34.4969206 C30.8088679,32.4172691 31.8182566,29.8040741 31.8182566,26.6573355 C31.8182566,23.5884865 30.9558662,21.2440105 29.2310855,19.6239074 C28.1204313,18.5801872 26.4740497,17.7467688 24.2919408,17.1236523 L19.3135965,15.6982732 C17.392818,15.1530462 16.138432,14.6779198 15.5504386,14.2728941 C14.6357822,13.6653554 14.1784539,12.7462585 14.1784539,11.5156033 C14.1784539,10.1759027 14.6423154,9.13218252 15.5700384,8.38444266 C16.4977613,7.6367028 17.7390808,7.26283287 19.2939967,7.26283287 C20.6921144,7.26283287 21.861568,7.55102427 22.8023575,8.12740708 C24.2135417,8.99977025 24.9713999,10.4718831 25.075932,12.5437456 L29.8975501,16.5882321 L30.8774671,12.5437456 C30.7729349,8.8829359 29.6459476,6.09059486 27.4965049,4.1667225 C25.3470623,2.24285015 22.7500914,1.28091398 19.7055921,1.28091398 C16.0600329,1.28091398 13.2964638,2.30126733 11.4148849,4.34197403 C9.53330592,6.38268074 8.59251645,8.94524755 8.59251645,12.0296745 C8.59251645,15.4100818 9.56597222,17.894759 11.5128838,19.4837062 C12.6627376,20.433959 14.7403143,21.3141111 17.745614,22.1241626 L20.8031798,22.9420031 C22.5932931,23.4093405 23.9064784,23.9467785 24.7427357,24.5543172 C25.5789931,25.1774337 25.9971217,26.0575858 25.9971217,27.1947735 C25.9971217,29.1420128 25.1543311,30.4739244 23.46875,31.1905084 C22.5802266,31.5643783 21.4238395,31.7513133 19.9995888,31.7513133 C17.6214821,31.7513133 15.9424342,31.0425182 14.9624452,29.6249281 C14.4267178,28.8460324 14.0673885,27.6698999 13.8844572,26.0965306 L8.12212171,26.0965306 C8.12212171,29.6794508 9.20010965,32.4951587 11.3560855,34.5436544 C13.5120614,36.59215 16.4716283,37.6163978 20.2347862,37.6163978 Z" id="S" fill="url(#linearGradient-6)" fill-rule="nonzero" mask="url(#mask-8)"></path>
                </g>
                <g id="浅备份-2" transform="translate(0.842105, 0.550538)">
                    <mask id="mask-10" fill="white">
                        <use xlink:href="#path-9"></use>
                    </mask>
                    <g id="蒙版"></g>
                    <path d="M18.3998284,41.1948925 C22.0845872,41.1948925 24.9363553,40.1550667 26.9551327,38.0754152 C28.9739101,35.9957638 29.9832988,33.3825687 29.9832988,30.2358301 C29.9832988,27.1669811 29.1209085,24.8225051 27.3961278,23.2024021 C26.2854735,22.1586818 24.6390919,21.3252635 22.456983,20.7021469 L17.4786387,19.2767678 C15.5578602,18.7315408 14.3034743,18.2564144 13.7154808,17.8513887 C12.8008244,17.2438501 12.3434962,16.3247531 12.3434962,15.0940979 C12.3434962,13.7543974 12.8073577,12.7106771 13.7350806,11.9629373 C14.6628036,11.2151974 15.904123,10.8413275 17.4590389,10.8413275 C18.8571566,10.8413275 20.0266102,11.1295189 20.9673997,11.7059017 C22.3785839,12.5782649 23.1364421,14.0503777 23.2409743,16.1222403 L29.0425093,16.1222403 C28.9379772,12.4614305 27.8109898,9.66908948 25.6615472,7.74521713 C23.5121046,5.82134478 20.9151336,4.8594086 17.8706343,4.8594086 C14.2250751,4.8594086 11.4615061,5.87976195 9.5799271,7.92046866 C7.69834816,9.96117536 6.75755868,12.5237422 6.75755868,15.6081691 C6.75755868,18.9885764 7.73101446,21.4732536 9.67792601,23.0622008 C10.8277798,24.0124536 12.9053566,24.8926057 15.9106563,25.7026572 L18.9682221,26.5204977 C20.7583354,26.9878351 22.0715207,27.5252731 22.907778,28.1328118 C23.7440353,28.7559283 24.1621639,29.6360805 24.1621639,30.7732682 C24.1621639,32.7205074 23.3193734,34.052419 21.6337922,34.769003 C20.7452688,35.142873 19.5888818,35.3298079 18.1646311,35.3298079 C15.7865243,35.3298079 14.1074764,34.6210129 13.1274874,33.2034227 C12.5917601,32.424527 12.2324308,31.2483945 12.0494995,29.6750252 L8.81347974,25.545993 L6.28716395,29.6750252 C6.28716395,33.2579454 7.36515188,36.0736533 9.52112776,38.122149 C11.6771036,40.1706446 14.6366705,41.1948925 18.3998284,41.1948925 Z" id="S备份" fill="url(#linearGradient-11)" fill-rule="nonzero" mask="url(#mask-10)"></path>
                </g>
                <g id="深备份-3" transform="translate(0.000000, 11.421764)">
                    <mask id="mask-13" fill="white">
                        <use xlink:href="#path-12"></use>
                    </mask>
                    <g id="蒙版"></g>
                    <path d="M20.2347862,26.1946336 C23.919545,26.1946336 26.771313,25.1548079 28.7900905,23.0751564 C30.8088679,20.9955049 31.8182566,18.3823099 31.8182566,15.2355713 C31.8182566,12.1667223 30.9558662,9.82224625 29.2310855,8.20214321 C28.1204313,7.15842299 26.4740497,6.32500461 24.2919408,5.70188805 L19.3135965,4.27650894 C17.392818,3.73128196 16.138432,3.25615559 15.5504386,2.85112983 C14.7714224,2.2379706 14.4470048,1.65149755 14.5771859,1.09171069 C14.2336451,1.31906951 13.9488851,1.56498035 13.7229057,1.82944318 C13.6163819,1.95732987 13.4940911,2.1094902 13.4051427,2.26421269 C12.6668001,3.23011461 12.6668001,5.43129196 13.8844572,7.22675229 C15.1608583,8.73571438 16.5755334,9.43612813 18.1193605,10.0725631 C19.1485785,10.4968531 20.2021388,10.8876077 21.2800413,11.2448267 C22.9883481,11.8207293 23.980433,12.3685676 24.7989788,13.0412507 C25.6175246,13.7139338 25.9971684,14.6747664 25.9971217,15.7730093 C25.9970388,17.7202485 25.1543311,19.0521602 23.46875,19.7687442 C22.5802266,20.1426141 21.4238395,20.3295491 19.9995888,20.3295491 C17.6214821,20.3295491 15.9424342,19.620754 14.9624452,18.2031639 C14.4267178,17.4242682 14.0673885,16.2481357 13.8844572,14.6747664 L8.12212171,14.6747664 C8.12212171,18.2576866 9.20010965,21.0733945 11.3560855,23.1218901 C13.5120614,25.1703858 16.4716283,26.1946336 20.2347862,26.1946336 Z" id="S" fill="url(#linearGradient-14)" fill-rule="nonzero" mask="url(#mask-13)"></path>
                </g>
                <path d="M14.4670263,12.3580849 C14.5528458,12.2972455 14.6717364,12.3174958 14.7325759,12.4033154 C14.7934153,12.4891349 14.773165,12.6080255 14.6873454,12.6688649 C13.3122752,13.643684 12.8236745,15.0543833 13.2168803,16.9351666 C13.6957758,19.0463685 16.2869833,20.873103 21.0104842,22.3820806 L21.3358455,22.4844727 C24.5982177,23.4841214 26.2379076,25.0034803 26.1944882,27.0368516 L26.1875624,27.1984487 C26.1545724,28.9079186 25.5634682,30.1467892 24.4128222,30.8921475 C24.3245307,30.9493404 24.2065922,30.92413 24.1493993,30.8358385 C24.0922063,30.7475469 24.1174167,30.6296085 24.2057083,30.5724155 C25.1925101,29.9331911 25.7239755,28.8873614 25.7991764,27.4077992 L25.8070344,27.1826085 C25.9258528,25.3259865 24.5036472,23.9074721 21.4793683,22.9290409 L20.8975347,22.7459126 L20.2644703,22.537569 C15.8189593,21.0294931 13.3398988,19.1995694 12.8446786,17.0162847 C12.4209172,14.9894922 12.9630249,13.4243063 14.4670263,12.3580849 Z" id="路径-2备份" fill-opacity="0.2" fill="#FFFFFF" fill-rule="nonzero"></path>
                <path d="M14.5155237,5.74763739 C16.9457018,5.04444805 19.5539115,5.0014476 22.4804817,5.7598075 C27.2998462,7.45474424 29.8419716,11.0439993 30.0878326,16.4923751 C30.0925749,16.5974653 30.0112268,16.686502 29.9061367,16.6912443 C29.8010465,16.6959865 29.7120098,16.6146385 29.7072675,16.5095483 C29.4682632,11.2131196 27.0235464,7.76139688 22.3695489,6.12389199 C19.5248949,5.38744713 16.9862294,5.42930103 14.6147234,6.11538208 C12.0796866,6.74999626 10.1617558,8.39909533 8.8525447,11.0761504 C8.80632886,11.1706519 8.69225495,11.2097951 8.59775349,11.1635792 C8.50325204,11.1173634 8.46410882,11.0032895 8.51032466,10.908788 C9.82197331,8.22674872 11.7408985,6.52498663 14.2534839,5.81729976 L14.5155237,5.74763739 Z" id="路径-3备份" fill-opacity="0.2" fill="#FFFFFF" fill-rule="nonzero"></path>
            </g>
        </g>
    </g>
</svg>