<?xml version="1.0" encoding="UTF-8"?>
<svg width="24px" height="24px" viewBox="0 0 24 24" version="1.1" xmlns="http://www.w3.org/2000/svg" xmlns:xlink="http://www.w3.org/1999/xlink">
    <title>编组 7</title>
    <defs>
        <rect id="path-1" x="0" y="0" width="13.6842105" height="6.4"></rect>
        <linearGradient x1="50%" y1="0%" x2="50%" y2="100%" id="linearGradient-3">
            <stop stop-color="#FF6875" offset="0%"></stop>
            <stop stop-color="#162A4C" offset="100%"></stop>
        </linearGradient>
        <rect id="path-4" x="0" y="0" width="13.6842105" height="6.4"></rect>
        <linearGradient x1="50%" y1="0%" x2="50%" y2="100%" id="linearGradient-6">
            <stop stop-color="#F24352" offset="0%"></stop>
            <stop stop-color="#365385" offset="100%"></stop>
        </linearGradient>
        <rect id="path-7" x="0" y="0" width="13.6842105" height="9.70322581"></rect>
        <rect id="path-9" x="0" y="0" width="13.6842105" height="9.49677419"></rect>
        <linearGradient x1="50%" y1="0%" x2="50%" y2="100%" id="linearGradient-11">
            <stop stop-color="#FF6875" offset="0%"></stop>
            <stop stop-color="#162A4C" offset="100%"></stop>
        </linearGradient>
        <polygon id="path-12" points="4.98599244 0 8.03697714 0.052322285 12.5263158 3.77348187 12.5263158 5.42006422 0 5.42006422"></polygon>
        <linearGradient x1="50%" y1="-44.6199733%" x2="50%" y2="100%" id="linearGradient-14">
            <stop stop-color="#F24352" offset="0%"></stop>
            <stop stop-color="#365385" offset="100%"></stop>
        </linearGradient>
    </defs>
    <g id="1.0" stroke="none" stroke-width="1" fill="none" fill-rule="evenodd">
        <g id="soswap-登陆-选择货币" transform="translate(-458.000000, -640.000000)">
            <g id="编组-7" transform="translate(458.000000, 640.000000)">
                <circle id="椭圆形备份-10" stroke="#EDF0F2" fill="#F9FAFB" cx="12" cy="12" r="11.5"></circle>
                <g id="编组-6备份-4" transform="translate(5.000000, 4.000000)">
                    <g id="浅备份" transform="translate(0.315789, 9.600000)">
                        <mask id="mask-2" fill="white">
                            <use xlink:href="#path-1"></use>
                        </mask>
                        <g id="蒙版"></g>
                        <path d="M6.89993566,6.05453629 C8.2817202,6.05453629 9.35113323,5.66460164 10.1081748,4.88473233 C10.8652163,4.10486302 11.2437371,3.12491488 11.2437371,1.94488791 C11.2437371,0.794069534 10.9203407,-0.0851089747 10.2735479,-0.692647612 C9.85705257,-1.0840427 9.23965948,-1.39657459 8.42136863,-1.6302433 L6.55448952,-2.16476046 C5.83419758,-2.36922058 5.36380284,-2.54739297 5.14330531,-2.69927763 C4.80030915,-2.92710462 4.62881107,-3.27176596 4.62881107,-3.73326166 C4.62881107,-4.23564938 4.80275912,-4.62704446 5.15065523,-4.90744691 C5.49855134,-5.18784935 5.96404613,-5.32805058 6.5471396,-5.32805058 C7.07143374,-5.32805058 7.50997883,-5.2199788 7.86277488,-5.00383525 C8.39196896,-4.67669906 8.67616578,-4.12465674 8.71536534,-3.34770829 L10.890941,-3.34770829 C10.8517414,-4.72051194 10.4291212,-5.76763983 9.62308019,-6.48909196 C8.81703921,-7.2105441 7.8431751,-7.57127016 6.70148788,-7.57127016 C5.33440317,-7.57127016 4.29806477,-7.18863765 3.59247266,-6.42337264 C2.88688056,-5.65810763 2.53408451,-4.69714507 2.53408451,-3.54048497 C2.53408451,-2.27283224 2.89913042,-1.34107827 3.62922225,-0.745223071 C4.06041743,-0.388878293 4.83950871,-0.0588212452 5.9664961,0.244948073 L7.11308327,0.551638251 C7.78437576,0.726889781 8.27682025,0.92842904 8.59041674,1.15625603 C8.90401323,1.38992474 9.06081148,1.71998178 9.06081148,2.14642717 C9.06081148,2.87664188 8.74476502,3.37610874 8.11267209,3.64482775 C7.77947582,3.78502898 7.34583067,3.85512959 6.81173664,3.85512959 C5.91994662,3.85512959 5.29030367,3.58933144 4.92280778,3.05773513 C4.72191003,2.76564925 4.58716153,2.32459956 4.5185623,1.73458608 L2.73000617,0.186198981 L2.73000617,2.14642717 C2.73000617,3.2 3.24549983,4.27861051 3.76198808,4.88473233 C4.57047904,5.6529182 5.48875145,6.05453629 6.89993566,6.05453629 Z" id="S备份" fill="url(#linearGradient-3)" fill-rule="nonzero" mask="url(#mask-2)"></path>
                    </g>
                    <g id="深备份" transform="translate(0.000000, 9.600000)">
                        <mask id="mask-5" fill="white">
                            <use xlink:href="#path-4"></use>
                        </mask>
                        <g id="蒙版"></g>
                        <path d="M7.58804482,4.50614919 C8.96982936,4.50614919 10.0392424,4.11621454 10.7962839,3.33634523 C11.5533255,2.55647592 11.9318462,1.57652778 11.9318462,0.396500817 C11.9318462,-0.754317563 11.6084498,-1.63349607 10.9616571,-2.24103471 C10.5451617,-2.63242979 9.92776864,-2.94496169 9.1094778,-3.17863039 L7.24259868,-3.71314756 C6.52230674,-3.91760768 6.05191201,-4.09578007 5.83141447,-4.24766473 C5.48841831,-4.47549172 5.31692023,-4.82015306 5.31692023,-5.28164875 C5.31692023,-5.78403647 5.49086828,-6.17543156 5.83876439,-6.455834 C6.1866605,-6.73623645 6.65215529,-6.87643768 7.23524877,-6.87643768 C7.7595429,-6.87643768 8.19808799,-6.7683659 8.55088405,-6.55222234 C9.08007812,-6.22508616 9.36427495,-5.67304384 9.40347451,-4.89609539 L10.6316817,-3.34770829 L11.5790502,-4.89609539 C11.5398506,-6.26889904 11.1172303,-7.31602693 10.3111894,-8.03747906 C9.50514837,-8.75893119 8.53128427,-9.11965726 7.38959704,-9.11965726 C6.02251234,-9.11965726 4.98617393,-8.73702475 4.28058183,-7.97175974 C3.57498972,-7.20649472 3.22219367,-6.24553217 3.22219367,-5.08887207 C3.22219367,-3.82121934 3.58723958,-2.88946537 4.31733141,-2.29361017 C4.74852659,-1.93726539 5.52761787,-1.60720834 6.65460526,-1.30343902 L7.80119243,-0.996748846 C8.47248492,-0.821497316 8.96492941,-0.619958057 9.2785259,-0.392131068 C9.5921224,-0.158462361 9.74892064,0.171594687 9.74892064,0.598040076 C9.74892064,1.32825478 9.43287418,1.82772164 8.80078125,2.09644066 C8.46758498,2.23664188 8.03393983,2.30674249 7.49984581,2.30674249 C6.60805578,2.30674249 5.97841283,2.04094434 5.61091694,1.50934803 C5.41001919,1.21726215 5.2752707,0.776212465 5.20667146,0.186198981 L3.04579564,0.186198981 C3.04579564,1.52979404 3.45004112,2.58568451 4.25853207,3.35387038 C5.06702303,4.12205626 6.17686061,4.50614919 7.58804482,4.50614919 Z" id="S" fill="url(#linearGradient-6)" fill-rule="nonzero" mask="url(#mask-5)"></path>
                    </g>
                    <g id="深备份-2">
                        <mask id="mask-8" fill="white">
                            <use xlink:href="#path-7"></use>
                        </mask>
                        <g id="蒙版"></g>
                        <path d="M7.58804482,14.1061492 C8.96982936,14.1061492 10.0392424,13.7162145 10.7962839,12.9363452 C11.5533255,12.1564759 11.9318462,11.1765278 11.9318462,9.99650082 C11.9318462,8.84568244 11.6084498,7.96650393 10.9616571,7.35896529 C10.5451617,6.96757021 9.92776864,6.65503831 9.1094778,6.42136961 L7.24259868,5.88685244 C6.52230674,5.68239232 6.05191201,5.50421993 5.83141447,5.35233527 C5.48841831,5.12450828 5.31692023,4.77984694 5.31692023,4.31835125 C5.31692023,3.81596353 5.49086828,3.42456844 5.83876439,3.144166 C6.1866605,2.86376355 6.65215529,2.72356232 7.23524877,2.72356232 C7.7595429,2.72356232 8.19808799,2.8316341 8.55088405,3.04777766 C9.08007813,3.37491384 9.36427495,3.92695616 9.40347451,4.70390461 L11.2115813,6.22058703 L11.5790502,4.70390461 C11.5398506,3.33110096 11.1172303,2.28397307 10.3111894,1.56252094 C9.50514837,0.841068808 8.53128427,0.480342742 7.38959704,0.480342742 C6.02251234,0.480342742 4.98617393,0.862975249 4.28058183,1.62824026 C3.57498972,2.39350528 3.22219367,3.35446783 3.22219367,4.51112793 C3.22219367,5.77878066 3.58723958,6.71053463 4.31733141,7.30638983 C4.74852659,7.66273461 5.52761787,7.99279166 6.65460526,8.29656098 L7.80119243,8.60325115 C8.47248492,8.77850268 8.96492941,8.98004194 9.2785259,9.20786893 C9.5921224,9.44153764 9.74892064,9.77159469 9.74892064,10.1980401 C9.74892064,10.9282548 9.43287418,11.4277216 8.80078125,11.6964407 C8.46758498,11.8366419 8.03393983,11.9067425 7.49984581,11.9067425 C6.60805578,11.9067425 5.97841283,11.6409443 5.61091694,11.109348 C5.41001919,10.8172621 5.2752707,10.3762125 5.20667146,9.78619898 L3.04579564,9.78619898 C3.04579564,11.129794 3.45004112,12.1856845 4.25853207,12.9538704 C5.06702303,13.7220563 6.17686061,14.1061492 7.58804482,14.1061492 Z" id="S" fill="url(#linearGradient-6)" fill-rule="nonzero" mask="url(#mask-8)"></path>
                    </g>
                    <g id="浅备份-2" transform="translate(0.315789, 0.206452)">
                        <mask id="mask-10" fill="white">
                            <use xlink:href="#path-9"></use>
                        </mask>
                        <g id="蒙版"></g>
                        <path d="M6.89993566,15.4480847 C8.2817202,15.4480847 9.35113323,15.05815 10.1081748,14.2782807 C10.8652163,13.4984114 11.2437371,12.5184633 11.2437371,11.3384363 C11.2437371,10.1876179 10.9203407,9.30843941 10.2735479,8.70090078 C9.85705257,8.30950569 9.23965948,7.9969738 8.42136863,7.76330509 L6.55448952,7.22878792 C5.83419758,7.02432781 5.36380284,6.84615542 5.14330531,6.69427076 C4.80030915,6.46644377 4.62881107,6.12178243 4.62881107,5.66028673 C4.62881107,5.15789901 4.80275912,4.76650393 5.15065523,4.48610148 C5.49855134,4.20569903 5.96404613,4.06549781 6.5471396,4.06549781 C7.07143374,4.06549781 7.50997883,4.17356959 7.86277488,4.38971314 C8.39196896,4.71684933 8.67616578,5.26889165 8.71536534,6.0458401 L10.890941,6.0458401 C10.8517414,4.67303645 10.4291212,3.62590855 9.62308019,2.90445642 C8.81703921,2.18300429 7.8431751,1.82227823 6.70148788,1.82227823 C5.33440317,1.82227823 4.29806477,2.20491073 3.59247266,2.97017575 C2.88688056,3.73544076 2.53408451,4.69640332 2.53408451,5.85306341 C2.53408451,7.12071615 2.89913042,8.05247011 3.62922225,8.64832532 C4.06041743,9.00467009 4.83950871,9.33472714 5.9664961,9.63849646 L7.11308327,9.94518664 C7.78437576,10.1204382 8.27682025,10.3219774 8.59041674,10.5498044 C8.90401323,10.7834731 9.06081148,11.1135302 9.06081148,11.5399756 C9.06081148,12.2701903 8.74476502,12.7696571 8.11267209,13.0383761 C7.77947582,13.1785774 7.34583067,13.248678 6.81173664,13.248678 C5.91994662,13.248678 5.29030367,12.9828798 4.92280778,12.4512835 C4.72191003,12.1591976 4.58716153,11.7181479 4.5185623,11.1281345 L3.3050549,9.57974737 L2.35768648,11.1281345 C2.35768648,12.4717295 2.76193196,13.52762 3.57042291,14.2958059 C4.37891386,15.0639917 5.48875145,15.4480847 6.89993566,15.4480847 Z" id="S备份" fill="url(#linearGradient-11)" fill-rule="nonzero" mask="url(#mask-10)"></path>
                    </g>
                    <g id="深备份-3" transform="translate(0.000000, 4.283162)">
                        <mask id="mask-13" fill="white">
                            <use xlink:href="#path-12"></use>
                        </mask>
                        <g id="蒙版"></g>
                        <path d="M7.58804482,9.82298761 C8.96982936,9.82298761 10.0392424,9.43305295 10.7962839,8.65318365 C11.5533255,7.87331434 11.9318462,6.8933662 11.9318462,5.71333923 C11.9318462,4.56252085 11.6084498,3.68334234 10.9616571,3.07580371 C10.5451617,2.68440862 9.92776864,2.37187673 9.1094778,2.13820802 L7.24259868,1.60369085 C6.52230674,1.39923074 6.05191201,1.22105835 5.83141447,1.06917369 C5.5392834,0.839238975 5.41762681,0.619311582 5.4664447,0.409391508 C5.33761693,0.494651068 5.23083191,0.58686763 5.14608963,0.686041192 C5.10614323,0.733998702 5.06028417,0.791058824 5.02692851,0.84907976 C4.75005003,1.21129298 4.75005003,2.03673449 5.20667146,2.71003211 C5.68532186,3.27589289 6.21582504,3.53854805 6.79476019,3.77721117 C7.18071696,3.93631992 7.57580205,4.08285287 7.98001547,4.21681003 C8.62063053,4.4327735 8.99266238,4.63821285 9.29961706,4.89046901 C9.60657174,5.14272516 9.74893817,5.50303739 9.74892064,5.91487849 C9.74888957,6.6450932 9.43287418,7.14456006 8.80078125,7.41327907 C8.46758498,7.5534803 8.03393983,7.62358091 7.49984581,7.62358091 C6.60805578,7.62358091 5.97841283,7.35778275 5.61091694,6.82618645 C5.41001919,6.53410056 5.2752707,6.09305088 5.20667146,5.50303739 L3.04579564,5.50303739 C3.04579564,6.84663246 3.45004112,7.90252293 4.25853207,8.6707088 C5.06702303,9.43889467 6.17686061,9.82298761 7.58804482,9.82298761 Z" id="S" fill="url(#linearGradient-14)" fill-rule="nonzero" mask="url(#mask-13)"></path>
                    </g>
                    <path d="M5.42513487,4.63428185 C5.45731719,4.61146705 5.50190116,4.61906094 5.52471595,4.65124326 C5.54753074,4.68342558 5.53993686,4.72800955 5.50775454,4.75082434 C4.99210321,5.11638149 4.80887793,5.64539375 4.95633011,6.35068746 C5.13591594,7.14238819 6.10761875,7.82741361 7.87893159,8.39328024 L8.00094207,8.43167727 C9.22433163,8.80654552 9.83921534,9.37630512 9.82293306,10.1388194 L9.82033592,10.1994183 C9.80796464,10.8404695 9.58630057,11.305046 9.15480834,11.5845553 C9.12169901,11.6060027 9.07747208,11.5965488 9.05602473,11.5634394 C9.03457737,11.5303301 9.04403127,11.4861032 9.0771406,11.4646558 C9.4471913,11.2249467 9.64649081,10.8327605 9.67469113,10.2779247 L9.67763789,10.1934782 C9.72219479,9.49724492 9.1888677,8.96530205 8.05476311,8.59839035 L7.8365755,8.52971723 L7.59917636,8.45158839 C5.93210972,7.88605992 5.00246205,7.19983854 4.81675446,6.38110675 C4.65784395,5.62105959 4.86113435,5.03411486 5.42513487,4.63428185 Z" id="路径-2备份" fill-opacity="0.2" fill="#FFFFFF" fill-rule="nonzero"></path>
                    <path d="M5.44332139,2.15536402 C6.35463818,1.89166802 7.33271681,1.87554285 8.43018066,2.15992781 C10.2374423,2.79552909 11.1907393,4.14149975 11.2829372,6.18464067 C11.2847156,6.22404947 11.2542101,6.25743826 11.2148013,6.2592166 C11.1753924,6.26099495 11.1420037,6.23048943 11.1402253,6.19108062 C11.0505987,4.20491986 10.1338299,2.91052383 8.38858083,2.2964595 C7.32183557,2.02029267 6.36983604,2.03598789 5.48052127,2.29326828 C4.52988249,2.5312486 3.81065843,3.14966075 3.31970426,4.1535564 C3.30237332,4.18899445 3.25959561,4.20367315 3.22415756,4.18634221 C3.18871951,4.16901127 3.17404081,4.12623356 3.19137175,4.09079551 C3.68323999,3.08503077 4.40283694,2.44686999 5.34505647,2.18148741 L5.44332139,2.15536402 Z" id="路径-3备份" fill-opacity="0.2" fill="#FFFFFF" fill-rule="nonzero"></path>
                </g>
            </g>
        </g>
    </g>
</svg>