<?xml version="1.0" encoding="UTF-8"?>
<svg width="48px" height="48px" viewBox="0 0 48 48" version="1.1" xmlns="http://www.w3.org/2000/svg" xmlns:xlink="http://www.w3.org/1999/xlink">
    <title>icon_soswap</title>
    <g id="页面-1" stroke="none" stroke-width="1" fill="none" fill-rule="evenodd">
        <g id="icon_soswap">
            <rect id="矩形" fill="#D8D8D8" opacity="0" x="0" y="0" width="48" height="48"></rect>
            <g id="编组-16" transform="translate(4.036159, 2.000000)">
                <path d="M8.03861401,30.6251995 L28.1884745,15.9854689 C31.4917769,13.5854792 36.1152086,14.3177589 38.5151983,17.6210613 C40.915188,20.9243637 40.1829083,25.5477954 36.8796059,27.9477851 L16.7297454,42.5875156 C13.426443,44.9875053 8.80301131,44.2552257 6.40302164,40.9519233 C4.00303196,37.6486209 4.73531161,33.0251892 8.03861401,30.6251995 Z" id="矩形" fill="#7569E5"></path>
                <path d="M3.04807672,16.0522149 L23.1979372,1.41248435 C26.5012396,-0.987505323 31.1246714,-0.255225676 33.524661,3.04807672 C35.9246507,6.35137912 35.1923711,10.9748108 31.8890687,13.3748005 L11.7392082,28.0145311 C8.43590575,30.4145208 3.81247402,29.6822411 1.41248435,26.3789387 C-0.987505323,23.0756363 -0.255225676,18.4522046 3.04807672,16.0522149 Z" id="矩形" fill="#48E8CC"></path>
                <polygon id="路径-4" fill="#FFFFFF" transform="translate(19.005061, 11.939934) rotate(9.000000) translate(-19.005061, -11.939934) " points="22.5469218 20.744425 27.7241941 15.6041623 21.1930974 15.6041623 27.7241941 3.13544216 10.2859285 20.744425"></polygon>
                <polygon id="路径-4" fill="#FFFFFF" transform="translate(20.921407, 32.134759) scale(-1, -1) rotate(9.000000) translate(-20.921407, -32.134759) " points="24.4632674 40.9392506 29.6405397 35.7989878 23.1094429 35.7989878 29.6405397 23.3302677 12.2022741 40.9392506"></polygon>
            </g>
        </g>
    </g>
</svg>
