<?xml version="1.0" encoding="UTF-8"?>
<svg width="21px" height="21px" viewBox="0 0 21 21" version="1.1" xmlns="http://www.w3.org/2000/svg" xmlns:xlink="http://www.w3.org/1999/xlink">
    <title>编组</title>
    <g id="页面-1" stroke="none" stroke-width="1" fill="none" fill-rule="evenodd">
        <g id="编组">
            <circle id="椭圆形" stroke="#F0F2F5" fill="#FFFFFF" cx="10.47375" cy="10.47375" r="9.97375"></circle>
            <g id="编组-2" transform="translate(4.318125, 3.583125)">
                <path d="M10.1020826,2.39203802e-05 L9.77225431,1.55046596 C10.7658797,1.73446785 11.8867039,2.49304519 12.0091618,4.05141115 C12.1043105,5.26224802 11.5828654,6.21262287 10.4448264,6.90253571 C11.5763297,7.60930256 11.9312844,8.65914516 11.5096906,10.0520635 C10.9230479,11.9902924 8.83140816,12.5117146 7.57122449,12.5770122 L7.31660585,13.7768164 L5.62273793,13.7768164 L5.87502429,12.5840239 L4.62302429,12.584 L4.80925327,11.6621013 C6.50331078,11.488392 7.96730624,10.6005378 8.0662571,8.71055817 L8.07158389,8.50421257 C8.07158389,7.15403869 7.52886694,6.38629276 5.8742421,5.9627088 L5.8742421,5.9627088 L5.15944416,5.77739082 L5.14663432,5.77386041 L5.12094165,5.76678651 L5.10806645,5.76323649 L5.08227736,5.75609396 L5.00487524,5.73409112 L4.97916459,5.72647794 L4.95994286,5.72064937 L4.95994286,5.72064937 L4.94078792,5.71470682 L4.91537415,5.70658704 L4.8267549,5.67557619 C4.56551591,5.5766782 4.35198724,5.41972711 4.35198724,5.06259288 C4.35198724,4.58606093 4.86823019,4.03010698 5.76834611,4.03010698 C6.39048505,4.03010698 6.906728,4.14923997 7.30383796,4.63900892 L7.30383796,4.63900892 L8.83932982,3.28883505 L8.71327211,3.13894738 C8.22942056,2.60722272 7.51141582,2.27264363 6.68749074,2.15658226 L6.68749074,2.15658226 L6.826911,1.49231698 C7.31048047,1.49574033 7.73145493,1.49848675 8.0898344,1.50055625 L8.40821472,2.39203802e-05 L10.1020826,2.39203802e-05 Z M1.90952166,11.2615267 C2.21769374,11.4184036 2.55688792,11.5284814 2.94224195,11.5983585 L2.94224195,11.5983585 L2.50402429,13.776 L2.17618467,13.7768164 L2.42902429,12.5840239 L1.66802429,12.5844225 Z M2.71246495,6.87566031 C3.04161372,7.22122534 3.55598826,7.53193912 4.35198724,7.73646664 L4.35198724,7.73646664 L5.06678517,7.92178462 L5.19085905,7.95587295 C5.62742722,8.08513286 5.8610051,8.26815275 5.8610051,8.72924154 C5.8610051,9.27195849 5.22562916,9.74849045 4.36522424,9.74849045 C3.54453031,9.74849045 2.88268037,9.53669847 2.41938541,9.00721852 L2.41938541,9.00721852 L2.30402429,9.107 Z M5.25302429,0 L4.79067425,2.24657869 C4.28412733,2.36575325 3.83314161,2.56154035 3.45361595,2.82677432 L3.70309326,1.46804279 C4.03209414,1.47075575 4.34739501,1.47332056 4.64899588,1.47573721 L4.96166147,2.39203802e-05 L5.25302429,0 Z" id="形状结合" fill="#EDB500"></path>
                <path d="M5.253,0 L4.79067425,2.24657869 C3.19803766,2.621276 2.15464544,3.75331856 2.15464544,5.41999185 C2.15464544,6.14802678 2.44585941,7.24669768 4.35198724,7.73646664 L4.35198724,7.73646664 L5.06678517,7.92178462 L5.19085905,7.95587295 C5.62742722,8.08513286 5.8610051,8.26815275 5.8610051,8.72924154 C5.8610051,9.27195849 5.22562916,9.74849045 4.36522424,9.74849045 C3.54453031,9.74849045 2.88268037,9.53669847 2.41938541,9.00721852 L2.41938541,9.00721852 L0.830945561,10.3971034 L0.991384943,10.5717612 C1.53206338,11.1301231 2.13616521,11.4521908 2.94224195,11.5983585 L2.94224195,11.5983585 L2.504,13.776 L0.508160377,13.7768164 L0.819,12.3080239 L0,12.3087975 L2.07159308,1.46804279 C2.38744866,1.47060143 2.69089976,1.4730283 2.98194639,1.47532338 L3.29363717,2.39203803e-05 L5.253,0 Z M8.97472658,2.39203803e-05 L8.63556895,1.60086775 C9.58525734,1.81217553 10.5776717,2.41357139 10.6876032,3.78786478 C10.7844596,4.99870165 10.253656,5.9490765 9.09519216,6.63898934 C10.2470029,7.34575619 10.6083281,8.39559879 10.1791678,9.78851714 C9.65275936,11.4970722 7.82833569,12.0966236 6.51095078,12.2584196 L6.18924978,13.7768164 L4.383,13.776 L4.80925327,11.6621013 C6.50331078,11.488392 7.96730624,10.6005378 8.0662571,8.71055817 L8.07158389,8.50421257 C8.07158389,7.15403869 7.52886694,6.38629276 5.8742421,5.9627088 L5.8742421,5.9627088 L5.15944416,5.77739082 L5.14663432,5.77386041 L5.12094165,5.76678651 L5.10806645,5.76323649 L5.08227736,5.75609396 L5.00487524,5.73409112 L4.97916459,5.72647794 L4.95994286,5.72064937 L4.95994286,5.72064937 L4.94078792,5.71470682 L4.91537415,5.70658704 L4.8267549,5.67557619 C4.56551591,5.5766782 4.35198724,5.41972711 4.35198724,5.06259288 C4.35198724,4.58606093 4.86823019,4.03010698 5.76834611,4.03010698 C6.39048505,4.03010698 6.906728,4.14923997 7.30383796,4.63900892 L7.30383796,4.63900892 L8.83932982,3.28883505 L8.71327211,3.13894738 C8.22942056,2.60722272 7.51141582,2.27264363 6.68749074,2.15658226 L6.68749074,2.15658226 L7.132,0 L8.97472658,2.39203803e-05 Z" id="形状结合" fill="#00D54A"></path>
            </g>
        </g>
    </g>
</svg>