<?xml version="1.0" encoding="UTF-8"?>
<svg width="25px" height="24px" viewBox="0 0 25 24" version="1.1" xmlns="http://www.w3.org/2000/svg" xmlns:xlink="http://www.w3.org/1999/xlink">
    <title>miniX</title>
    <defs>
        <linearGradient x1="86.3119959%" y1="6.28295264%" x2="30.9330501%" y2="56.8797034%" id="linearGradient-1">
            <stop stop-color="#84A6FE" offset="0%"></stop>
            <stop stop-color="#4E6EFC" offset="44.5349264%"></stop>
            <stop stop-color="#543FF4" offset="100%"></stop>
        </linearGradient>
        <circle id="path-2" cx="11" cy="11" r="11"></circle>
    </defs>
    <g id="2.0改版" stroke="none" stroke-width="1" fill="none" fill-rule="evenodd">
        <g id="token-list" transform="translate(-216.000000, -110.000000)">
            <g id="miniX" transform="translate(216.680436, 109.999895)">
                <circle id="椭圆形" fill="#E0E0E0" fill-rule="nonzero" cx="12" cy="12" r="12"></circle>
                <g id="椭圆形" transform="translate(1.200000, 1.200000)" fill="url(#linearGradient-1)" fill-rule="nonzero">
                    <circle id="path-2" cx="10.8" cy="10.8" r="10.8"></circle>
                </g>
                <g id="miniX-logo-Clipped" transform="translate(1.000000, 1.000000)">
                    <mask id="mask-3" fill="white">
                        <use xlink:href="#path-2"></use>
                    </mask>
                    <g id="path-2"></g>
                    <g id="miniX-logo" mask="url(#mask-3)">
                        <g transform="translate(0.000000, 3.666667)" id="编组-2">
                            <path d="M21.6042955,0 L17.1338174,2.28387125 C16.5019702,2.60666844 16.0583191,3.20737388 15.935636,3.90621423 L15.3215084,7.4044685 C14.9787435,9.35696038 13.4041391,10.8584961 11.4375748,11.1081704 L9.00740946,11.4167033 C8.14702726,11.5259371 7.34994372,11.9263435 6.74866043,12.5513618 L0.0321988595,19.532948 L10.1041797,6.29275517 C8.8356066,7.2140807 7.06736571,7.23588461 5.76250688,6.24133246 L5.72310854,6.21088329 L0,1.72615983 L10.736942,5.46074759 L11.5320006,4.41565078 C12.0585071,3.72352099 12.7734382,3.19790653 13.591104,2.90180631 L21.6042955,0 Z M13.9023246,4.29766393 C13.6276366,4.29766393 13.4049579,4.52034259 13.4049579,4.79503067 C13.4049579,5.06971873 13.6276366,5.29239739 13.9023246,5.29239739 C14.1770127,5.29239739 14.3996914,5.06971873 14.3996914,4.79503067 C14.3996914,4.52034259 14.1770127,4.29766393 13.9023246,4.29766393 Z" id="形状结合" fill="#FFFFFF" fill-rule="nonzero"></path>
                        </g>
                    </g>
                </g>
            </g>
        </g>
    </g>
</svg>