<?xml version="1.0" encoding="UTF-8"?>
<svg width="24px" height="24px" viewBox="0 0 24 24" version="1.1" xmlns="http://www.w3.org/2000/svg" xmlns:xlink="http://www.w3.org/1999/xlink">
    <title>icon_miniX</title>
    <g id="1.2" stroke="none" stroke-width="1" fill="none" fill-rule="evenodd">
        <g id="soswap-Bridge" transform="translate(-452.000000, -385.000000)" fill-rule="nonzero">
            <g id="icon_miniX" transform="translate(452.000000, 385.000000)">
                <rect id="矩形" fill="#D8D8D8" opacity="0" x="0" y="0" width="24" height="24"></rect>
                <g id="icon_integral" transform="translate(-0.000000, 0.000000)">
                    <circle id="椭圆形" fill="#4261DF" cx="11.5384615" cy="11.5384615" r="11.5384615"></circle>
                    <path d="M18.325753,9.28330367 C18.325753,8.00803329 14.7724862,7.92652466 14.2970192,7.36954903 C13.8224013,6.81342241 12.5191122,3.95892233 11.5384615,3.95892233 C10.5578109,3.95892233 9.25791805,6.80323387 8.7833001,7.35256803 C8.30783309,7.9027513 4.75117011,8.00124087 4.75117011,9.28330367 C4.75117011,10.2809354 6.29219265,11.6996949 6.97397833,12.5478941 L6.97397817,12.5478943 C8.47949987,10.1666988 11.0969032,8.71933695 13.9140983,8.71019642 C10.5204526,8.71019642 8.24330525,11.9747868 7.16756118,13.9734463 C6.9603934,15.0899447 6.60718932,16.820305 6.95699722,17.1531319 C8.21358854,18.3451956 10.9381843,16.3015365 11.5384614,16.3015365 C12.1387384,16.3015365 14.8641832,18.3375542 16.1199255,17.1531319 C16.5911473,16.7056835 15.7803062,13.6779776 15.7803062,13.1082662 C15.7803062,12.5377058 18.325753,10.5594234 18.325753,9.28330394 L18.325753,9.28330367 Z" id="路径" fill="#FFFFFF"></path>
                </g>
            </g>
        </g>
    </g>
</svg>