<?xml version="1.0" encoding="UTF-8"?>
<svg width="64px" height="64px" viewBox="0 0 64 64" version="1.1" xmlns="http://www.w3.org/2000/svg" xmlns:xlink="http://www.w3.org/1999/xlink">
    <title>编组 7备份</title>
    <defs>
        <polygon id="path-1" points="0 0 23.2918773 0 23.2918773 23.0555952 0 23.0555952"></polygon>
        <polygon id="path-3" points="0 0 19.1294947 0 19.1294947 13.687889 0 13.687889"></polygon>
    </defs>
    <g id="页面-1" stroke="none" stroke-width="1" fill="none" fill-rule="evenodd">
        <g id="编组-7备份">
            <circle id="椭圆形备份-10" stroke="#EDF0F2" fill="#F9FAFB" cx="32" cy="32" r="31.5"></circle>
            <g id="ChainX-Logo备份" transform="translate(13.333333, 13.333333)">
                <g id="Clipped">
                    <mask id="mask-2" fill="white">
                        <use xlink:href="#path-1"></use>
                    </mask>
                    <g id="chainx-logo-a"></g>
                    <path d="M21.1136016,10.486273 L15.2789548,4.71095355 C15.1626653,4.59589331 14.9739916,4.59589331 14.8582954,4.71095355 L12.5437787,7.00159154 C12.4274892,7.11665177 12.4274892,7.30333113 12.5437787,7.41780433 L18.320874,13.1367677 C19.733554,14.5345148 19.7709327,16.8597883 18.3351137,18.2340537 C16.9396398,19.5689872 14.7070004,19.5548983 13.329326,18.1911997 L4.91376464,9.86166028 C3.53609026,8.49796166 3.52185073,6.28833547 4.87104605,4.90702559 C6.25880677,3.48520981 8.60832898,3.52219344 10.0204156,4.92052755 L10.8605478,5.7523661 C10.9768372,5.86742634 11.165511,5.86742634 11.2818005,5.7523661 L13.5957239,3.46172813 C13.7120133,3.34666788 13.7120133,3.15998852 13.5957239,3.04492828 L12.6980402,2.15673371 C9.79317643,-0.718598144 5.08345236,-0.718598144 2.17858854,2.15673371 C-0.726275288,5.0314785 -0.726275288,9.69317922 2.17858854,12.5685111 L10.5941499,20.8986374 C13.4990137,23.7739693 18.2087378,23.7739693 21.1136016,20.8986374 C24.0184655,18.0233056 24.0184655,13.3616048 21.1136016,10.486273" id="路径" fill="#EA754B" fill-rule="nonzero" mask="url(#mask-2)"></path>
                </g>
                <path d="M35.1231042,2.20612066 C32.1743254,-0.735373552 27.3943773,-0.735373552 24.4468028,2.20612066 L18.6666667,7.97142532 L21.4287756,10.7255862 C21.4329908,10.7303896 21.437206,10.735193 21.4420232,10.739396 L27.2215573,4.97409134 C28.6354296,3.5660889 30.9344774,3.5660889 32.3465433,4.97409134 C33.7592112,6.38389506 33.7592112,8.67752803 32.3465433,10.0873317 L31.4366791,10.9945777 C31.3186557,11.1122615 31.3186557,11.3031974 31.4366791,11.4208812 L33.7857062,13.7637492 C33.9037297,13.881433 34.0946143,13.881433 34.2126378,13.7637492 L35.1231042,12.8553024 C38.0700764,9.91440863 38.0700764,5.14701444 35.1231042,2.20612066" id="路径" fill="#34C69A" fill-rule="nonzero"></path>
                <path d="M30.2590093,12.3257819 C30.1424329,12.2094093 29.9538886,12.2094093 29.8373124,12.3257819 L23.9864908,18.1675686 C23.7241941,18.429407 23.4303743,18.6425589 23.1175215,18.8064306 C21.7673776,19.5123849 20.0585832,19.299233 18.9249383,18.1675686 C18.9207748,18.1634125 18.9148271,18.1568813 18.9112584,18.1527253 C17.5349444,16.7633786 17.5349444,14.5154871 18.9112584,13.1261405 L16.1705259,10.389009 C13.8978828,12.6677749 13.4101657,16.0508932 14.7061848,18.8064306 C15.0624562,19.5658213 15.5561212,20.2794942 16.1836109,20.9064814 C16.9818017,21.7032777 17.9167911,22.2809845 18.9112584,22.6413834 C19.7320507,22.9376585 20.5938826,23.0866867 21.4557146,23.0866867 C23.3649487,23.0866867 25.2723987,22.3599517 26.7290077,20.9064814 L32.5792344,15.0641009 C32.6958107,14.9477283 32.6958107,14.7595134 32.5792344,14.6431407 L30.2590093,12.3257819 Z" id="路径" fill="#34C69A" fill-rule="nonzero"></path>
                <path d="M35.1042117,24.2032968 L29.2782643,18.4693494 L26.4797213,21.2231492 L32.3056688,26.9570966 C33.7164745,28.3456424 33.7298297,30.5941908 32.3487699,31.9988615 C30.9282514,33.4441436 28.5255108,33.4059213 27.0807099,31.9839309 L26.221114,31.1376646 C26.1021304,31.0212058 25.9096926,31.0212058 25.7907091,31.1376646 L23.4225711,33.4686298 C23.3035874,33.5850884 23.3035874,33.7750056 23.4225711,33.8920616 L24.2457432,34.7024945 C27.2276183,37.6366559 32.1830428,37.7125034 35.1430636,34.7574391 C36.6036482,33.2990182 37.3333333,31.3992486 37.3333333,29.5006736 C37.3333333,27.5835846 36.5908998,25.6658983 35.1042117,24.2032968" id="路径" fill="#F6C94A" fill-rule="nonzero"></path>
                <path d="M24.8746278,29.939286 C24.9922822,29.8239768 24.9922822,29.637482 24.8746278,29.5221728 L18.9714986,23.7343594 C18.7061759,23.4743255 18.4900759,23.183111 18.3249997,22.8730706 C17.6130705,21.538779 17.8273696,19.8473819 18.9714986,18.725471 L18.9847046,18.7119398 C20.3899543,17.3494091 22.6608043,17.3494091 24.066054,18.7119398 L26.8333333,15.9986448 C24.5276675,13.751293 21.1084866,13.2682888 18.3249997,14.550809 C17.5566443,14.9032079 16.8381122,15.3909185 16.2042191,16.0127643 C15.3986466,16.802279 14.8139763,17.7259288 14.4514087,18.7119398 C14.1500694,19.5226337 14,20.3774511 14,21.2310919 C14,23.1195733 14.73534,25.0074665 16.2042191,26.4470661 L22.1073484,32.2348795 C22.2250028,32.3501887 22.4152907,32.3501887 22.5329451,32.2348795 L24.8746278,29.939286 Z" id="路径" fill="#F6C94A" fill-rule="nonzero"></path>
                <path d="M22.8963599,18.7850656 C22.8190608,18.5648135 22.7292749,18.34753 22.6281914,18.132621 C22.27321,17.3721284 21.7796846,16.6597231 21.1505887,16.0328064 C20.5256549,15.4076707 19.8162866,14.9161111 19.0587551,14.5605021 C18.8518312,14.4619527 18.6395559,14.3758704 18.4266859,14.2980995 C15.7949477,13.3452574 12.7374695,13.9187437 10.6230408,16.0197456 L13.3635925,18.7565693 C13.6228419,18.500697 13.9124164,18.2917248 14.2192345,18.1314337 C15.5701856,17.4267461 17.2784965,17.639874 18.4106315,18.7702237 L18.423713,18.7838782 C19.5522803,19.923133 19.7562311,21.6382487 19.0331869,22.9846948 C18.8756156,23.282124 18.6722593,23.5605558 18.423713,23.8110849 L21.1654538,26.5496897 C23.2584766,24.4469067 23.837031,21.4061234 22.8963599,18.7850656 M7.49462585,24.6185963 L10.6234571,21.4935117 L7.88290536,18.7566881 L4.75407416,21.8811789 C4.63753084,21.9969449 4.63753084,22.1857323 4.75407416,22.3020918 L7.07304824,24.6185963 C7.18959156,24.7349559 7.37808253,24.7349559 7.49462585,24.6185963" id="形状" fill="#46AEE2" fill-rule="nonzero"></path>
                <g id="Clipped" transform="translate(0.000000, 23.645444)">
                    <mask id="mask-4" fill="white">
                        <use xlink:href="#path-3"></use>
                    </mask>
                    <g id="chainx-logo-c"></g>
                    <path d="M10.3631878,8.7699692 C8.9148999,10.1637872 6.55826957,10.1637872 5.11183295,8.7699692 C3.66354508,7.37615115 3.66354508,5.10971278 5.11183295,3.71589474 L6.03745365,2.82546582 C6.15840143,2.70911646 6.15840143,2.52034553 6.03745365,2.40399615 L3.6308398,0.0876937561 C3.50989204,-0.0286556207 3.31366045,-0.0286556207 3.19271267,0.0876937561 L2.26647488,0.9793099 C-0.75536821,3.88745071 -0.75536821,8.60019409 2.26647488,11.5083349 C3.77832205,12.9615149 5.75668204,13.6898857 7.73565912,13.6881114 C9.71648745,13.6881114 11.6966987,12.9615149 13.2085459,11.5083349 L19.1300502,5.80840266 L16.2859262,3.07122421 L10.3631878,8.7699692 Z" id="路径" fill="#46AEE2" fill-rule="nonzero" mask="url(#mask-4)"></path>
                </g>
            </g>
        </g>
    </g>
</svg>