<?xml version="1.0" encoding="UTF-8"?>
<svg width="25px" height="24px" viewBox="0 0 25 24" version="1.1" xmlns="http://www.w3.org/2000/svg" xmlns:xlink="http://www.w3.org/1999/xlink">
    <title>PCX logo</title>
    <defs>
        <polygon id="path-1" points="0 0 10.0309866 0 10.0309866 9.9292283 0 9.9292283"></polygon>
        <polygon id="path-3" points="0 0 8.23839587 0 8.23839587 5.89488901 0 5.89488901"></polygon>
    </defs>
    <g id="2.0改版" stroke="none" stroke-width="1" fill="none" fill-rule="evenodd">
        <g id="token-list" transform="translate(-77.000000, -110.000000)">
            <g id="PCX-logo" transform="translate(77.890584, 109.999895)">
                <circle id="椭圆形备份-10" stroke="#EEEEEE" fill="#F8FFFE" cx="12" cy="12" r="11.5"></circle>
                <g id="ChainX-Logo备份" transform="translate(3.960928, 3.960928)">
                    <g id="路径-Clipped">
                        <mask id="mask-2" fill="white">
                            <use xlink:href="#path-1"></use>
                        </mask>
                        <g id="path-1"></g>
                        <path d="M9.09288044,4.51606639 L6.5801047,2.02884085 C6.53002294,1.97928848 6.44876786,1.97928848 6.3989416,2.02884085 L5.40216123,3.0153375 C5.35207946,3.06488987 5.35207946,3.14528606 5.40216123,3.19458561 L7.89015157,5.65754059 C8.49854281,6.25950076 8.5146405,7.26091371 7.8962841,7.85276114 C7.29530292,8.42766972 6.3337842,8.42160213 5.74046863,7.83430544 L2.1161844,4.24706782 C1.52286884,3.65977112 1.51673638,2.70816338 2.09778702,2.11328213 C2.69544641,1.50095643 3.70730241,1.51688397 4.31543811,2.11909695 L4.67725329,2.47734035 C4.72733502,2.52689272 4.80859014,2.52689272 4.85867191,2.47734035 L5.85519677,1.4908437 C5.9052785,1.44129133 5.9052785,1.36089514 5.85519677,1.31134277 L5.46859619,0.928828825 C4.21757425,-0.30947477 2.18926289,-0.30947477 0.938240926,0.928828825 C-0.312781044,2.16687959 -0.312781044,4.17450899 0.938240926,5.4128126 L4.56252515,9.00030297 C5.81354711,10.2386066 7.84185848,10.2386066 9.09288044,9.00030297 C10.3439024,7.7619994 10.3439024,5.75436997 9.09288044,4.51606639" id="路径" fill="#EA754B" fill-rule="nonzero" mask="url(#mask-2)"></path>
                    </g>
                    <path d="M15.126277,0.950098035 C13.8563424,-0.316699344 11.7977881,-0.316699344 10.5283721,0.950098035 L8.03907224,3.43301057 L9.22861472,4.61913011 C9.23043006,4.62119877 9.23224539,4.62326742 9.23431999,4.6250775 L11.7233606,2.14216498 C12.3322654,1.53578819 13.3223838,1.53578819 13.9305106,2.14216498 C14.5388966,2.74931751 14.5388966,3.73710399 13.9305106,4.3442565 L13.5386643,4.73497523 C13.4878358,4.78565747 13.4878358,4.8678868 13.5386643,4.91856904 L14.5503071,5.92755932 C14.6011356,5.97824156 14.6833429,5.97824156 14.7341714,5.92755932 L15.126277,5.53632345 C16.3954336,4.26978466 16.3954336,2.21663683 15.126277,0.950098035" id="路径" fill="#34C69A" fill-rule="nonzero"></path>
                    <path d="M13.0314836,5.30827773 C12.9812783,5.25816017 12.900079,5.25816017 12.8498737,5.30827773 L10.3301321,7.82412836 C10.2171702,7.93689289 10.0906324,8.02868986 9.95589777,8.0992636 C9.37443861,8.40329312 8.63852138,8.31149614 8.15030067,7.82412836 C8.1485076,7.82233848 8.14594613,7.81952572 8.14440922,7.81773588 C7.55167953,7.21939346 7.55167953,6.25130621 8.14440922,5.65296383 L6.9640728,4.47417823 C5.98532591,5.455562 5.77528343,6.91255123 6.33343295,8.0992636 C6.48686643,8.42630628 6.69947046,8.73365992 6.96970805,9.0036811 C7.31346056,9.34683305 7.71612738,9.59563091 8.14440922,9.75084195 C8.4978954,9.87843714 8.86905587,9.94261831 9.24021639,9.94261831 C10.0624559,9.94261831 10.8839271,9.62963929 11.511237,9.0036811 L14.0307224,6.48757474 C14.0809277,6.43745718 14.0809277,6.35639969 14.0307224,6.30628209 L13.0314836,5.30827773 Z" id="路径" fill="#34C69A" fill-rule="nonzero"></path>
                    <path d="M15.1181407,10.4235027 L12.6091115,7.95409467 L11.4038781,9.14005871 L13.9129074,11.6094668 C14.5204914,12.2074643 14.5262431,13.1758344 13.9314695,13.7807764 C13.3197025,14.4032082 12.2849272,14.3867472 11.6627026,13.7743463 L11.2925051,13.4098894 C11.2412631,13.3597347 11.158387,13.3597347 11.107145,13.4098894 L10.0872718,14.4137535 C10.0360298,14.4639081 10.0360298,14.5456987 10.0872718,14.5961106 L10.4417829,14.9451353 C11.7259709,16.2087747 13.8600967,16.2414396 15.1348728,14.968798 C15.7638949,14.3407078 16.0781444,13.5225443 16.0781444,12.7048953 C16.0781444,11.879273 15.7584046,11.0533934 15.1181407,10.4235027" id="路径" fill="#F6C94A" fill-rule="nonzero"></path>
                    <path d="M10.7126212,12.8937901 C10.7632908,12.8441305 10.7632908,12.7638138 10.7126212,12.7141543 L8.17035254,10.221548 C8.05608745,10.1095606 7.96302084,9.98414484 7.89192836,9.85062142 C7.58532567,9.27598929 7.6776167,8.54756446 8.17035254,8.06439717 L8.1760399,8.05856976 C8.78123118,7.47177604 9.75920584,7.47177604 10.3643971,8.05856976 L11.5561663,6.8900497 C10.5631977,5.92219487 9.09067759,5.71418207 7.89192836,6.2665181 C7.5610249,6.41828382 7.25157858,6.6283235 6.97858327,6.89613047 C6.63165172,7.23614649 6.37985493,7.63392974 6.22370991,8.05856976 C6.09393374,8.40770691 6.02930417,8.77584649 6.02930417,9.14347935 C6.02930417,9.95678141 6.34598906,10.7698301 6.97858327,11.3898147 L9.52085199,13.882421 C9.57152157,13.9320805 9.65347183,13.9320805 9.70414142,13.882421 L10.7126212,12.8937901 Z" id="路径" fill="#F6C94A" fill-rule="nonzero"></path>
                    <path d="M9.8606513,8.09006245 C9.82736131,7.99520767 9.78869371,7.90163137 9.74516062,7.80907767 C9.59228271,7.48156044 9.3797388,7.17475271 9.10880947,6.90476189 C8.83967262,6.63553808 8.53417281,6.42384077 8.20793083,6.27069257 C8.11881603,6.22825084 8.02739658,6.19117824 7.93572101,6.15768507 C6.80232457,5.74732972 5.485577,5.99430996 4.57496744,6.89913707 L5.755226,8.0777901 C5.86687553,7.96759497 5.99158501,7.87759804 6.1237207,7.80856634 C6.7055275,7.50508235 7.4412365,7.59686899 7.92880695,8.08367057 L7.93444068,8.08955108 C8.42047465,8.58018777 8.50830904,9.31882736 8.19691951,9.89869401 C8.12905913,10.0267862 8.04148077,10.1466969 7.93444068,10.254591 L9.11521134,11.4340111 C10.0166021,10.5284169 10.265765,9.21885922 9.8606513,8.09006245 M3.22766992,10.6023575 L4.57514673,9.25649426 L3.39488815,8.07784127 L2.04741137,9.4234488 C1.99722029,9.47330511 1.99722029,9.55460916 2.04741137,9.60472108 L3.04611137,10.6023575 C3.09630245,10.6524695 3.17747884,10.6524695 3.22766992,10.6023575" id="形状" fill="#46AEE2" fill-rule="nonzero"></path>
                    <g id="路径-Clipped" transform="translate(0.000000, 10.183255)">
                        <mask id="mask-4" fill="white">
                            <use xlink:href="#path-3"></use>
                        </mask>
                        <g id="path-3"></g>
                        <path d="M4.46305796,3.77691513 C3.83933165,4.37718318 2.82441443,4.37718318 2.20148541,3.77691513 C1.57775912,3.17664706 1.57775912,2.20057233 2.20148541,1.60030426 L2.60011746,1.21682806 C2.65220539,1.16672051 2.65220539,1.08542356 2.60011746,1.035316 L1.56367411,0.0377665949 C1.51158619,-0.012340961 1.4270762,-0.012340961 1.37498827,0.0377665949 L0.97609046,0.42175409 C-0.325310336,1.67418734 -0.325310336,3.70379901 0.97609046,4.95623226 C1.62718949,5.58206542 2.47919907,5.89574892 3.33147441,5.89498619 C4.18454702,5.89498619 5.03735387,5.58206542 5.68845292,4.95623226 L8.2386351,2.50147331 L7.01377162,1.3226675 L4.46305796,3.77691513 Z" id="路径" fill="#46AEE2" fill-rule="nonzero" mask="url(#mask-4)"></path>
                    </g>
                </g>
            </g>
        </g>
    </g>
</svg>