<?xml version="1.0" encoding="UTF-8"?>
<svg width="25px" height="25px" viewBox="0 0 25 25" version="1.1" xmlns="http://www.w3.org/2000/svg" xmlns:xlink="http://www.w3.org/1999/xlink">
    <title>sBTC logo</title>
    <g id="2.0改版" stroke="none" stroke-width="1" fill="none" fill-rule="evenodd">
        <g id="token-list" transform="translate(-124.000000, -66.000000)" fill-rule="nonzero">
            <g id="BTC" transform="translate(124.132656, 66.322340)">
                <path d="M12,0.5 C15.1759766,0.5 18.0509848,1.78699783 20.1319935,3.86800652 C22.2130022,5.94901521 23.5,8.82402344 23.5,12 C23.5,15.1759766 22.2130022,18.0509848 20.1319935,20.1319935 C18.0509848,22.2130022 15.1759766,23.5 12,23.5 C8.82402343,23.5 5.9490152,22.2130022 3.86800651,20.1319935 C1.78699782,18.0509848 0.5,15.1759766 0.5,12 C0.5,8.8243074 1.78735043,5.94954147 3.86830938,3.86858253 C5.94963925,1.78725266 8.82486263,0.5 12,0.5 Z" id="路径" stroke="#EDEEF2" fill="#B329AA"></path>
                <path d="M15.7079255,7.09803257 L16.2810113,4.94996619 L14.6140689,4.51470631 L14.045739,6.64865613 L12.5547648,6.25809861 L13.1230947,4.12414879 L11.4561523,3.68888888 L10.8878224,5.82283873 L8.60499121,5.22759142 L8.30774756,6.34515059 L9.95566637,6.77570495 L7.58960689,15.662065 L5.94168809,15.2315106 L5.64444444,16.3490698 L7.92727568,16.944317 L7.35656786,19.0735614 L9.02351026,19.5088213 L9.59184013,17.3748714 L10.9900742,17.7419014 L10.4217444,19.8758512 L12.0886868,20.3111111 L12.6570166,18.1771613 L12.733111,18.1959833 C15.310808,18.8688716 16.9064119,17.7419014 17.3273089,16.1702603 C17.6911351,14.8103672 17.0110417,13.3493057 15.0040525,12.5634851 C16.7708688,12.6952394 17.9503316,11.9282409 18.2689768,10.7283353 C18.6280471,9.38255877 17.8885049,7.83444522 15.7079255,7.09803257 L15.7079255,7.09803257 Z M14.7543679,15.4667862 C14.5688878,16.163202 13.8555031,17.2972305 12.3811745,16.9113785 L9.89146172,16.2620178 L10.9662948,12.2388048 L13.6295979,12.9328678 C14.1051877,13.0599167 15.1705089,13.8951451 14.7543679,15.4667862 Z M15.776886,10.0789746 C15.4558629,11.2788803 14.7805253,11.8482472 13.3585117,11.4788645 L11.3063415,10.9424361 L12.2575212,7.37330503 L14.7139427,8.0132547 C15.027832,8.09795394 16.15498,8.66261542 15.776886,10.0789746 L15.776886,10.0789746 Z" id="形状" fill="#FFFFFF"></path>
            </g>
        </g>
    </g>
</svg>