<?xml version="1.0" encoding="UTF-8"?>
<svg width="25px" height="24px" viewBox="0 0 25 24" version="1.1" xmlns="http://www.w3.org/2000/svg" xmlns:xlink="http://www.w3.org/1999/xlink">
    <title>Soswap</title>
    <g id="2.0改版" stroke="none" stroke-width="1" fill="none" fill-rule="evenodd">
        <g id="token-list" transform="translate(-124.000000, -110.000000)">
            <g id="Soswap" transform="translate(124.153868, 109.999895)">
                <circle id="椭圆形" stroke="#EEEEEE" fill="#F8FFFE" cx="12" cy="12" r="11.5"></circle>
                <g id="编组-16" transform="translate(3.696125, 2.849193)">
                    <path d="M3.34362734,12.7384216 L11.7248762,6.64908785 C13.0988708,5.65082235 15.0219676,5.95541095 16.0202331,7.32940555 C17.0184986,8.70340014 16.71391,10.6264969 15.3399154,11.6247624 L6.95866652,17.7140962 C5.58467193,18.7123617 3.66157515,18.4077731 2.66330964,17.0337785 C1.66504413,15.6597839 1.96963274,13.7366871 3.34362734,12.7384216 Z" id="矩形" fill="#7569E5"></path>
                    <path d="M1.26783456,6.67685059 L9.64908341,0.587516863 C11.023078,-0.410748643 12.9461748,-0.106160035 13.9444403,1.26783456 C14.9427058,2.64182915 14.6381172,4.56492593 13.2641226,5.56319144 L4.88287374,11.6525252 C3.50887915,12.6507907 1.58578237,12.3462021 0.587516863,10.9722075 C-0.410748643,9.59821288 -0.106160035,7.6751161 1.26783456,6.67685059 Z" id="矩形" fill="#48E8CC"></path>
                    <polygon id="路径-4" fill="#FFFFFF" transform="translate(7.967012, 4.966365) rotate(9.000000) translate(-7.967012, -4.966365) " points="9.44023341 8.62855543 11.5936979 6.49048498 8.8771159 6.49048498 11.5936979 1.30417384 4.34032538 8.62855543"></polygon>
                    <polygon id="路径-4" fill="#FFFFFF" transform="translate(8.644473, 13.106776) scale(-1, -1) rotate(9.000000) translate(-8.644473, -13.106776) " points="10.0300798 16.5237704 12.1835442 14.5288514 9.46696228 14.5288514 12.3587747 9.68978241 4.93017177 16.5237704"></polygon>
                </g>
            </g>
        </g>
    </g>
</svg>