<?xml version="1.0" encoding="UTF-8"?>
<svg width="24px" height="24px" viewBox="0 0 24 24" version="1.1" xmlns="http://www.w3.org/2000/svg" xmlns:xlink="http://www.w3.org/1999/xlink">
    <title>USB</title>
    <g id="2.0改版" stroke="none" stroke-width="1" fill="none" fill-rule="evenodd">
        <g id="token-list" transform="translate(-30.000000, -110.000000)">
            <g id="USB" transform="translate(30.000000, 109.999895)">
                <circle id="椭圆形" stroke="#EEEEEE" fill="#F8FFFE" cx="12" cy="12" r="11.5"></circle>
                <g id="编组-2" transform="translate(4.817096, 3.232623)" fill-rule="nonzero">
                    <path d="M12.4655362,2.9516722e-05 L12.0585423,1.91320843 C13.2846334,2.14025887 14.6676823,3.07631074 14.8187901,4.99926743 C14.9361995,6.49338815 14.2927587,7.66610991 12.8884674,8.51743274 C14.2846939,9.38955269 14.7226927,10.6850134 14.2024641,12.4038148 C13.4785722,14.7955061 10.8975785,15.4389187 9.34256599,15.5194931 L9.02837752,17 L6.93821722,17 L7.24952776,15.5281453 L5.70461351,15.5281158 L5.93441207,14.3905324 C8.02480632,14.1761825 9.83131386,13.0806086 9.95341498,10.7484548 L9.95998801,10.4938332 C9.95998801,8.82777662 9.29029859,7.8804111 7.24856257,7.35772668 L7.24856257,7.35772668 L6.3665326,7.12905225 L6.35072581,7.12469587 L6.31902215,7.11596699 L6.30313471,7.11158641 L6.27131208,7.10277284 L6.17580119,7.07562228 L6.14407535,7.06622794 L6.12035656,7.05903574 L6.12035656,7.05903574 L6.09672019,7.05170288 L6.06536068,7.04168342 L5.95600833,7.00341737 C5.63365064,6.88138149 5.37016542,6.68771059 5.37016542,6.24702228 C5.37016542,5.65900231 6.00718706,4.972979 7.11789147,4.972979 C7.88558421,4.972979 8.52260585,5.119984 9.01262249,5.72433786 L9.01262249,5.72433786 L10.9073535,4.05828126 L10.7518037,3.87332631 C10.1547517,3.21720091 9.26876466,2.80434468 8.25207648,2.66112993 L8.25207648,2.66112993 L8.4241151,1.84145509 C9.02081906,1.84567936 9.54028347,1.84906832 9.98250835,1.85162199 L10.375376,2.9516722e-05 L12.4655362,2.9516722e-05 Z M2.35626775,13.8962405 C2.73653887,14.0898199 3.15508993,14.2256511 3.63060026,14.3118765 L3.63060026,14.3118765 L3.08985848,16.9989926 L2.68531846,17 L2.9973117,15.5281453 L2.05827037,15.5286371 L2.35626775,13.8962405 Z M3.3470653,8.48426965 C3.75322075,8.91068206 4.38793685,9.29408953 5.37016542,9.54646771 L5.37016542,9.54646771 L6.25219538,9.77514214 L6.40529722,9.81720568 C6.9440036,9.97670686 7.23222868,10.2025455 7.23222868,10.7715093 C7.23222868,11.4411987 6.44820205,12.0292187 5.38649931,12.0292187 C4.37379824,12.0292187 3.55710382,11.7678765 2.98541773,11.114521 L2.98541773,11.114521 L2.84306706,11.237647 L3.3470653,8.48426965 Z M6.48200646,0 L5.91148636,2.77218166 C5.28642921,2.91923795 4.72993219,3.16083083 4.26161382,3.48811816 L4.56945811,1.81150178 C4.97543107,1.81484946 5.36449881,1.81801432 5.73666133,1.82099636 L6.12247725,0 L6.48200646,0 Z" id="形状结合" fill="#EDB500"></path>
                    <path d="M6.48197649,0 L5.91148636,2.77218166 C3.94624118,3.23454205 2.65873997,4.63143397 2.65873997,6.68803726 C2.65873997,7.58640111 3.01808551,8.94211384 5.37016542,9.54646771 L5.37016542,9.54646771 L6.25219538,9.77514214 L6.40529722,9.81720568 C6.9440036,9.97670686 7.23222868,10.2025455 7.23222868,10.7715093 C7.23222868,11.4411987 6.44820205,12.0292187 5.38649931,12.0292187 C4.37379824,12.0292187 3.55710382,11.7678765 2.98541773,11.114521 L2.98541773,11.114521 L1.02535115,12.8295792 L1.22332646,13.0450995 C1.89050044,13.7340941 2.63593616,14.1315118 3.63060026,14.3118765 L3.63060026,14.3118765 L3.0898285,16.9989926 L0.62704809,17 L1.01061084,15.1875731 L0,15.1885277 L2.55625693,1.81150178 C2.94600915,1.81465903 3.32045478,1.81765369 3.67959383,1.82048572 L4.06420687,0 L6.48197649,0 Z M11.0744273,0 L10.6559214,1.97540208 C11.8277961,2.23614681 13.0523928,2.97824348 13.1880435,4.67406253 C13.3075602,6.16818324 12.6525713,7.34090501 11.2230767,8.19222783 C12.6443617,9.06434779 13.0902215,10.3598085 12.5606561,12.0786099 C11.9110907,14.1868935 9.65983017,14.9267142 8.03423375,15.1263635 L7.63726852,17 L5.40843384,16.9989926 L5.93441207,14.3905324 C8.02480632,14.1761825 9.83131386,13.0806086 9.95341498,10.7484548 L9.95998801,10.4938332 C9.95998801,8.82777662 9.29029859,7.8804111 7.24856257,7.35772668 L7.24856257,7.35772668 L6.3665326,7.12905225 L6.35072581,7.12469587 L6.31902215,7.11596699 L6.30313471,7.11158641 L6.27131208,7.10277284 L6.17580119,7.07562228 L6.14407535,7.06622794 L6.12035656,7.05903574 L6.12035656,7.05903574 L6.09672019,7.05170288 L6.06536068,7.04168342 L5.95600833,7.00341737 C5.63365064,6.88138149 5.37016542,6.68771059 5.37016542,6.24702228 C5.37016542,5.65900231 6.00718706,4.972979 7.11789147,4.972979 C7.88558421,4.972979 8.52260585,5.119984 9.01262249,5.72433786 L9.01262249,5.72433786 L10.9073535,4.05828126 L10.7518037,3.87332631 C10.1547517,3.21720091 9.26876466,2.80434468 8.25207648,2.66112993 L8.25207648,2.66112993 L8.80058182,0 L11.0744273,0 Z" id="形状结合" fill="#00D54A"></path>
                </g>
            </g>
        </g>
    </g>
</svg>