<?xml version="1.0" encoding="UTF-8"?>
<svg width="24px" height="24px" viewBox="0 0 24 24" version="1.1" xmlns="http://www.w3.org/2000/svg" xmlns:xlink="http://www.w3.org/1999/xlink">
    <title>icon-USDC</title>
    <g id="2.0改版" stroke="none" stroke-width="1" fill="none" fill-rule="evenodd">
        <g id="token-list" transform="translate(-30.000000, -27.000000)" fill-rule="nonzero">
            <g id="icon-USDC" transform="translate(30.000000, 27.000000)">
                <circle id="椭圆形" stroke="#EDEEF2" fill="#2775CA" cx="12" cy="12" r="11.5"></circle>
                <path d="M9.75,20.34375 C9.75,20.625 9.525,20.784375 9.2625,20.7 C5.625,19.5375 3,16.14375 3,12.121875 C3,8.109375 5.625,4.70625 9.2625,3.54375 C9.534375,3.459375 9.75,3.61875 9.75,3.9 L9.75,4.603125 C9.75,4.790625 9.609375,5.00625 9.43125,5.071875 C6.553125,6.13125 4.5,8.896875 4.5,12.121875 C4.5,15.35625 6.553125,18.1125 9.43125,19.1625 C9.609375,19.228125 9.75,19.44375 9.75,19.63125 L9.75,20.34375 Z" id="路径" fill="#FFFFFF"></path>
                <path d="M12.75,17.746875 C12.75,17.953125 12.58125,18.121875 12.375,18.121875 L11.625,18.121875 C11.41875,18.121875 11.25,17.953125 11.25,17.746875 L11.25,16.565625 C9.609375,16.340625 8.8125,15.43125 8.596875,14.175 C8.559375,13.959375 8.728125,13.771875 8.94375,13.771875 L9.796875,13.771875 C9.975,13.771875 10.125,13.903125 10.1625,14.071875 C10.321875,14.8125 10.753125,15.384375 12.065625,15.384375 C13.03125,15.384375 13.725,14.840625 13.725,14.034375 C13.725,13.228125 13.321875,12.91875 11.896875,12.684375 C9.796875,12.403125 8.803125,11.765625 8.803125,10.125 C8.803125,8.859375 9.76875,7.865625 11.25,7.659375 L11.25,6.496875 C11.25,6.290625 11.41875,6.121875 11.625,6.121875 L12.375,6.121875 C12.58125,6.121875 12.75,6.290625 12.75,6.496875 L12.75,7.6875 C13.959375,7.903125 14.728125,8.5875 14.98125,9.73125 C15.028125,9.946875 14.859375,10.14375 14.634375,10.14375 L13.846875,10.14375 C13.678125,10.14375 13.5375,10.03125 13.490625,9.871875 C13.275,9.15 12.759375,8.83125 11.859375,8.83125 C10.865625,8.83125 10.35,9.309375 10.35,9.984375 C10.35,10.696875 10.640625,11.053125 12.16875,11.26875 C14.23125,11.55 15.3,12.140625 15.3,13.89375 C15.3,15.225 14.30625,16.303125 12.759375,16.546875 L12.759375,17.746875 L12.75,17.746875 Z" id="路径" fill="#FFFFFF"></path>
                <path d="M14.7375,20.7 C14.465625,20.784375 14.25,20.625 14.25,20.34375 L14.25,19.640625 C14.25,19.434375 14.371875,19.2375 14.56875,19.171875 C17.4375,18.121875 19.5,15.35625 19.5,12.13125 C19.5,8.896875 17.446875,6.140625 14.56875,5.090625 C14.390625,5.025 14.25,4.809375 14.25,4.621875 L14.25,3.91875 C14.25,3.6375 14.475,3.478125 14.7375,3.5625 C18.375,4.70625 21,8.109375 21,12.121875 C21,16.14375 18.375,19.5375 14.7375,20.7 Z" id="路径" fill="#FFFFFF"></path>
            </g>
        </g>
    </g>
</svg>