<?xml version="1.0" encoding="UTF-8"?>
<svg width="25px" height="24px" viewBox="0 0 25 24" version="1.1" xmlns="http://www.w3.org/2000/svg" xmlns:xlink="http://www.w3.org/1999/xlink">
    <title>icon_USDT</title>
    <g id="页面-1" stroke="none" stroke-width="1" fill="none" fill-rule="evenodd">
        <g id="token-list" transform="translate(-77.000000, -27.000000)" fill-rule="nonzero">
            <g id="icon_USDT" transform="translate(77.890584, 27.000000)">
                <path d="M24,12 C24,18.6276025 18.6276025,24 12,24 C5.372633,24 0,18.6276025 0,12 C0,5.37251523 5.372633,0 12,0 C18.6276025,0 24,5.37251523 24,12" id="路径" fill="#1BA27A"></path>
                <polygon id="路径" fill="#FFFFFF" points="17.6320406 6.05112542 6.26924172 6.05112542 6.26924172 8.79432646 10.5790407 8.79432646 10.5790407 12.8263216 13.3222417 12.8263216 13.3222417 8.79432646 17.6320406 8.79432646"></polygon>
                <path d="M11.9766809,13.255794 C8.41149233,13.255794 5.52105101,12.6915535 5.52105101,11.9954351 C5.52105101,11.2994345 8.41137455,10.7350762 11.9766809,10.7350762 C15.5418694,10.7350762 18.432193,11.2994368 18.432193,11.9954351 C18.432193,12.6915558 15.5418694,13.255794 11.9766809,13.255794 M19.2252789,12.2055546 C19.2252789,11.3079542 15.9800099,10.5803951 11.9766809,10.5803951 C7.97349314,10.5803951 4.72796509,11.3079542 4.72796509,12.2055546 C4.72796509,12.9959953 7.24447594,13.6545534 10.5791584,13.8004746 L10.5791584,19.5885414 L13.3221239,19.5885414 L13.3221239,13.8027359 C16.682481,13.661376 19.2252789,13.0000561 19.2252789,12.2055357" id="形状" fill="#FFFFFF"></path>
            </g>
        </g>
    </g>
</svg>