<?xml version="1.0" encoding="UTF-8"?>
<svg width="25px" height="24px" viewBox="0 0 25 24" version="1.1" xmlns="http://www.w3.org/2000/svg" xmlns:xlink="http://www.w3.org/1999/xlink">
    <title>icon_USDT</title>
    <g id="2.0改版" stroke="none" stroke-width="1" fill="none" fill-rule="evenodd">
        <g id="token-list" transform="translate(-77.000000, -27.000000)">
            <g id="icon_USDT" transform="translate(77.890584, 27.000000)">
                <circle id="椭圆形" stroke="#EDEEF2" fill="#1BA27A" cx="12" cy="12" r="11.5"></circle>
                <path d="M17.6320406,6.05112542 L17.6320406,8.79432646 L13.3222417,8.79432646 L13.3229716,10.608371 L13.9070779,10.6386549 C14.0028972,10.6445753 14.0979213,10.6509256 14.1921064,10.657696 L14.7467976,10.7032814 C14.837451,10.7116929 14.9271777,10.7205049 15.0159338,10.7297076 L15.5364712,10.7895321 C15.6211691,10.8002579 15.7048086,10.8113546 15.7873458,10.8228124 L16.2689908,10.8958139 C16.3469433,10.9086768 16.4237059,10.9218811 16.4992345,10.9354171 L16.9372482,11.0205334 C17.2189181,11.0798255 17.4794412,11.1441085 17.7160095,11.2127531 L18.0525448,11.3189123 C18.7942349,11.5738827 19.2252789,11.878426 19.2252789,12.2055546 C19.2252789,12.6495407 18.4312045,13.0519364 17.1441296,13.3452444 L16.7216482,13.434163 L16.7216482,13.434163 L16.2684982,13.515357 L16.2684982,13.515357 L15.7867864,13.5883538 L15.7867864,13.5883538 L15.2786197,13.6526812 C15.1918378,13.6626538 15.1040413,13.6722454 15.0152743,13.6814463 L14.471376,13.7318839 C14.2864282,13.747081 14.0979492,13.7606363 13.9062902,13.7724712 L13.3221239,13.8027359 L13.3221239,19.5885414 L10.5791584,19.5885414 L10.5791584,13.8004746 L9.98224626,13.7683794 C9.88438953,13.7621169 9.78737863,13.7554049 9.6912608,13.748254 L9.12564892,13.7001656 L9.12564892,13.7001656 L8.58373942,13.6420509 L8.58373942,13.6420509 L8.06780073,13.5744183 C7.98410121,13.5623813 7.90157832,13.5499689 7.82027932,13.5371917 L7.34755014,13.456236 L7.34755014,13.456236 L6.90646281,13.3670339 C5.56218035,13.0720404 4.72796509,12.6606568 4.72796509,12.2055546 C4.72796509,11.7025476 5.74718355,11.2529401 7.34779577,10.954846 L7.82055557,10.8738839 C7.98316345,10.8483273 8.15066652,10.8242297 8.3226866,10.8016759 L8.85191958,10.7387306 C8.94225751,10.7290398 9.03363013,10.7197562 9.12599017,10.7108903 L9.69162124,10.6627926 C9.78774186,10.65564 9.88475534,10.6489263 9.98261442,10.6426622 L10.5795378,10.6105561 L10.5795378,10.6105561 L10.5790407,8.79432646 L6.26924172,8.79432646 L6.26924172,6.05112542 L17.6320406,6.05112542 Z M13.322633,10.762515 L13.3222417,12.8263216 L10.5790407,12.8263216 L10.5788679,10.7647047 L10.3011927,10.777947 L10.3011927,10.777947 L9.76064997,10.8113048 L9.76064997,10.8113048 L9.24177864,10.8534503 L9.24177864,10.8534503 L8.74689189,10.9039316 L8.74689189,10.9039316 L8.2783029,10.9622968 C8.20252472,10.9726563 8.12793867,10.9833254 8.05459294,10.9942948 L7.62978784,11.0636389 C6.33414538,11.2941614 5.52105101,11.6262817 5.52105101,11.9954351 C5.52105101,12.3048211 6.09200238,12.588157 7.03938603,12.8074853 L7.41192024,12.8866589 L7.41192024,12.8866589 L7.81746545,12.959387 C8.02811089,12.9940655 8.25028063,13.0261601 8.48269246,13.0554207 L8.96079228,13.1100888 L8.96079228,13.1100888 L9.46392479,13.1567545 L9.46392479,13.1567545 L9.98981046,13.1949731 L9.98981046,13.1949731 L10.5361698,13.2242995 L10.5361698,13.2242995 L11.1007232,13.2442892 L11.1007232,13.2442892 L11.6811912,13.2544971 L11.6811912,13.2544971 L12.2721702,13.2544971 L12.2721702,13.2544971 L12.8526362,13.2442892 L12.8526362,13.2442892 L13.4171858,13.2242997 L13.4171858,13.2242997 L13.9635397,13.1949733 L13.9635397,13.1949733 L14.4894186,13.1567549 L14.4894186,13.1567549 L14.9925432,13.1100893 L14.9925432,13.1100893 L15.4706343,13.0554213 C15.7030416,13.0261608 15.9252066,12.9940662 16.1358472,12.9593878 L16.5413826,12.8866598 L16.5413826,12.8866598 L16.9139071,12.8074863 C17.8612649,12.5881582 18.432193,12.3048221 18.432193,11.9954351 C18.432193,11.7022619 17.9193566,11.4324454 17.0592656,11.218327 L16.6971014,11.1357269 C16.6337849,11.1224809 16.569023,11.1095016 16.5028651,11.0967985 L16.0895557,11.0239726 L16.0895557,11.0239726 L15.6450931,10.9582376 L15.6450931,10.9582376 L15.1718323,10.9000537 C15.0906865,10.8910112 15.0084388,10.8823025 14.9251385,10.8739371 L14.4130959,10.8279422 L14.4130959,10.8279422 L13.8781424,10.7906481 L13.8781424,10.7906481 L13.322633,10.762515 L13.322633,10.762515 Z" id="形状" fill="#FFFFFF" fill-rule="nonzero"></path>
            </g>
        </g>
    </g>
</svg>