<?xml version="1.0" encoding="UTF-8"?>
<svg width="25px" height="25px" viewBox="0 0 25 25" version="1.1" xmlns="http://www.w3.org/2000/svg" xmlns:xlink="http://www.w3.org/1999/xlink">
    <title>XBTC logo</title>
    <g id="2.0改版" stroke="none" stroke-width="1" fill="none" fill-rule="evenodd">
        <g id="token-list" transform="translate(-170.000000, -65.000000)" fill-rule="nonzero">
            <g id="XBTC-logo" transform="translate(170.417152, 65.973855)">
                <path d="M6.08034902,2.1444286 C8.60188238,0.629244694 11.701081,0.0761201194 14.7809392,0.844791109 C17.8617413,1.61369765 20.3399699,3.55814199 21.8555899,6.08077572 C23.3707397,8.60262684 23.9238573,11.70231 23.1552105,14.7831064 C22.3876866,17.8632073 20.4435922,20.3405541 17.921143,21.8556887 C15.3987495,23.3707897 12.2980224,23.9237279 9.21707643,23.1550726 C6.13605897,22.3863995 3.65863296,20.4425738 2.14367003,17.9207849 C0.62874293,15.3990555 0.0762521898,12.2994131 0.844965734,9.21909643 C1.61380222,6.13828715 3.55807662,3.6600566 6.08034902,2.1444286 Z" id="路径" stroke="#EDEEF2" fill="#F7931A"></path>
                <path d="M17.2922297,10.2902582 C17.5307952,8.69338183 16.3149274,7.83488227 14.6521696,7.26222923 L15.1921819,5.09917994 L13.8750319,4.77109247 L13.3489399,6.87726045 C13.003092,6.79109849 12.6476439,6.70925663 12.2943558,6.6290948 L12.8223679,4.50900649 L11.5065379,4.18091902 L10.9680856,6.34312828 L8.31218511,5.68527329 L7.96177713,7.09182534 C7.96177713,7.09182534 8.93883939,7.31575044 8.91819892,7.32967076 C9.45149107,7.4628738 9.54821327,7.81568184 9.5318929,8.09552821 L8.05417923,14.0212632 C7.98889774,14.1832669 7.82353398,14.4261525 7.45080548,14.3332703 C7.46400579,14.3524708 6.49366368,14.0932649 6.49366368,14.0932649 L5.83988878,15.6027793 L8.49194921,16.2723945 L7.94689679,18.4606444 L9.26212675,18.7887318 L9.80213906,16.6240025 C10.1621473,16.7214447 10.5101552,16.8114468 10.851203,16.8961687 L10.3133507,19.0508178 L11.6302607,19.3789053 L12.1753131,17.1948555 C14.4209243,17.6196652 16.1096028,17.4483013 16.8194189,15.4188151 C17.392072,13.7837778 16.7913383,12.8405563 15.6097914,12.2251823 C16.470211,12.0259778 17.1182258,11.4602849 17.2911497,10.2910982 M14.2825611,14.5094343 C13.8745518,16.1444716 11.1222891,15.2608915 10.2292288,15.0388864 L10.9523653,12.1402204 C11.8449456,12.3629454 14.7071308,12.8040755 14.2830412,14.5091943 M14.6910504,10.2670977 C14.319762,11.7551316 12.0280698,10.9991144 11.2842928,10.8135901 L11.9390277,8.18385022 C12.6830447,8.36961446 15.0772192,8.71546234 14.6900904,10.2669777" id="形状" fill="#FFFFFF"></path>
            </g>
        </g>
    </g>
</svg>